<svg width="751" height="763" viewBox="0 0 751 763" fill="none" xmlns="http://www.w3.org/2000/svg">
<path d="M631.843 169.464C631.843 169.464 627.387 159.34 620.258 145.598C620.258 145.598 597.585 166.275 597.792 165.111C597.999 163.946 631.843 169.464 631.843 169.464Z" fill="#231F20"/>
<path d="M631.843 170.729H631.698C619.781 168.806 600.321 165.921 598.207 166.275C597.606 166.553 597.44 166.275 597.233 166.275C597.055 166.133 596.917 165.929 596.835 165.69C596.754 165.451 596.734 165.187 596.777 164.934C596.777 164.554 596.88 164.2 597.543 164.023C598.891 163.365 611.802 151.798 619.636 144.661C619.75 144.556 619.881 144.481 620.02 144.442C620.16 144.403 620.304 144.4 620.444 144.434C620.584 144.462 620.718 144.526 620.836 144.622C620.954 144.718 621.054 144.843 621.128 144.99C628.196 158.708 632.714 168.831 632.755 168.932C632.856 169.13 632.91 169.358 632.91 169.59C632.91 169.823 632.856 170.051 632.755 170.248C632.648 170.415 632.509 170.547 632.349 170.631C632.19 170.715 632.016 170.749 631.843 170.729ZM601.46 163.845C605.73 164.149 613.895 165.263 629.937 167.819C628.32 164.276 624.776 156.734 619.968 147.395C609.958 156.556 604.507 161.315 601.46 163.845Z" fill="#231F20"/>
<path d="M331.621 586.956L320.305 563.925L335.952 546.639L331.621 586.956Z" fill="#231F20"/>
<path d="M331.6 588.221C331.418 588.225 331.239 588.168 331.082 588.056C330.925 587.945 330.796 587.783 330.709 587.588L319.393 564.583C319.272 564.33 319.224 564.035 319.258 563.746C319.292 563.456 319.405 563.189 319.58 562.988L335.248 545.702C335.401 545.527 335.596 545.415 335.804 545.384C336.013 545.352 336.224 545.401 336.408 545.525C336.597 545.646 336.752 545.834 336.852 546.065C336.952 546.295 336.992 546.557 336.968 546.816L332.616 587.107C332.588 587.368 332.495 587.611 332.351 587.806C332.206 588 332.017 588.136 331.807 588.196L331.6 588.221ZM321.611 564.152L330.958 583.184L334.543 549.878L321.611 564.152Z" fill="#231F20"/>
<path d="M338.957 591.79L521.006 623.476C524.738 624.072 528.523 623.027 531.682 620.528C534.841 618.028 537.169 614.238 538.249 609.835L632.486 179.334C632.982 177.321 633.09 175.196 632.801 173.123C632.512 171.051 631.834 169.089 630.82 167.39C629.806 165.691 628.484 164.302 626.957 163.331C625.431 162.361 623.741 161.835 622.02 161.795L436.344 143.598C432.664 143.363 429.027 144.649 426.019 147.248C423.011 149.847 420.807 153.607 419.764 157.923L329.528 574.023C329.05 575.952 328.923 577.985 329.155 579.98C329.387 581.975 329.972 583.885 330.869 585.576C331.767 587.267 332.955 588.699 334.352 589.772C335.749 590.845 337.321 591.534 338.957 591.79Z" fill="#231F20"/>
<path d="M523.078 624.919C522.337 624.923 521.596 624.863 520.861 624.741L338.812 593.03C337.042 592.764 335.339 592.037 333.82 590.898C332.3 589.758 330.999 588.232 330.004 586.424C329.018 584.574 328.368 582.487 328.096 580.305C327.825 578.122 327.938 575.894 328.429 573.77L418.811 157.518C419.939 152.95 422.286 148.974 425.478 146.222C428.67 143.471 432.524 142.102 436.427 142.333L622.102 160.606C624.01 160.724 625.873 161.36 627.554 162.467C629.236 163.575 630.694 165.126 631.822 167.009C632.846 168.838 633.526 170.921 633.813 173.109C634.1 175.297 633.986 177.535 633.48 179.663L539.265 610.138C538.22 614.395 536.084 618.13 533.169 620.791C530.255 623.452 526.717 624.899 523.078 624.919ZM435.225 144.737C431.951 144.803 428.779 146.141 426.17 148.558C423.561 150.974 421.651 154.344 420.718 158.176L330.439 574.352C330.017 576.137 329.913 578.012 330.135 579.85C330.356 581.688 330.898 583.447 331.724 585.007C332.556 586.521 333.646 587.798 334.919 588.751C336.193 589.703 337.62 590.308 339.102 590.524L521.151 622.236C524.627 622.789 528.15 621.821 531.098 619.505C534.045 617.189 536.226 613.674 537.254 609.582L631.491 179.031C631.905 177.238 631.989 175.355 631.738 173.518C631.487 171.68 630.908 169.933 630.04 168.401C629.072 166.811 627.826 165.507 626.391 164.583C624.956 163.658 623.371 163.139 621.75 163.061L436.261 144.788C435.917 144.746 435.571 144.729 435.225 144.737Z" fill="#231F20"/>
<path d="M327.103 568.025L509.151 599.711C512.884 600.307 516.668 599.262 519.827 596.762C522.986 594.263 525.314 590.473 526.394 586.07L620.631 155.569C621.125 153.567 621.235 151.452 620.951 149.389C620.668 147.326 619.999 145.371 618.997 143.674C617.995 141.978 616.686 140.587 615.172 139.608C613.659 138.629 611.981 138.089 610.268 138.03L424.593 119.758C420.913 119.522 417.276 120.808 414.268 123.407C411.26 126.006 409.056 129.767 408.013 134.082L317.652 550.258C317.171 552.189 317.042 554.225 317.273 556.224C317.505 558.222 318.091 560.135 318.991 561.827C319.892 563.52 321.084 564.952 322.485 566.022C323.887 567.093 325.462 567.776 327.103 568.025Z" fill="white"/>
<path d="M511.224 601.154C510.482 601.158 509.741 601.098 509.006 600.976L326.958 569.265C325.187 568.999 323.485 568.272 321.965 567.132C320.445 565.993 319.144 564.467 318.15 562.659C317.167 560.807 316.519 558.721 316.248 556.539C315.976 554.357 316.087 552.13 316.574 550.005L406.956 133.753C408.078 129.18 410.423 125.199 413.617 122.446C416.811 119.693 420.668 118.328 424.572 118.568L610.248 136.866C612.157 136.979 614.021 137.612 615.703 138.72C617.385 139.828 618.842 141.383 619.968 143.269C620.996 145.096 621.678 147.179 621.965 149.368C622.252 151.557 622.136 153.796 621.626 155.924L527.41 586.5C526.347 590.733 524.203 594.44 521.29 597.077C518.377 599.714 514.849 601.143 511.224 601.154ZM423.37 120.972C420.097 121.042 416.927 122.381 414.319 124.797C411.71 127.214 409.8 130.581 408.863 134.411L318.502 550.587C318.08 552.376 317.977 554.255 318.198 556.097C318.42 557.939 318.962 559.702 319.787 561.267C320.621 562.777 321.711 564.049 322.985 564.997C324.258 565.945 325.684 566.546 327.165 566.759L509.213 598.471C512.688 599.019 516.21 598.049 519.157 595.734C522.103 593.418 524.285 589.906 525.317 585.817L619.678 155.266C620.103 153.48 620.201 151.602 619.965 149.764C619.728 147.927 619.163 146.176 618.31 144.636C617.353 143.063 616.123 141.768 614.707 140.844C613.292 139.921 611.726 139.392 610.123 139.296L424.448 121.023L423.37 120.972Z" fill="#231F20"/>
<path d="M602.642 183.915L412.552 163.795L339.6 499.59L526.912 530.036L602.642 183.915Z" fill="#E6E7E8"/>
<path d="M526.912 530.416L339.6 500.046C339.554 500.037 339.51 500.016 339.47 499.986C339.431 499.955 339.398 499.914 339.372 499.866C339.347 499.818 339.33 499.764 339.323 499.708C339.316 499.652 339.318 499.594 339.33 499.539L412.282 163.744C412.297 163.653 412.34 163.571 412.401 163.515C412.462 163.459 412.538 163.432 412.614 163.44L602.704 183.561C602.754 183.564 602.803 183.581 602.846 183.612C602.889 183.643 602.926 183.686 602.952 183.738C602.978 183.787 602.992 183.844 602.992 183.902C602.992 183.961 602.978 184.018 602.952 184.067L527.223 530.138C527.208 530.222 527.168 530.298 527.111 530.349C527.054 530.4 526.983 530.424 526.912 530.416ZM340.014 499.261L526.664 529.631L602.227 184.269L412.801 164.225L340.014 499.261Z" fill="#D1D3D4"/>
<path d="M402.355 565.545L437.878 571.644C440.133 571.978 442.411 571.325 444.309 569.8C446.206 568.276 447.599 565.978 448.24 563.317L451.784 547.12C452.079 545.884 452.147 544.584 451.981 543.313C451.815 542.042 451.421 540.832 450.826 539.77C450.232 538.707 449.452 537.819 448.542 537.169C447.633 536.518 446.617 536.122 445.567 536.009L409.982 530.112C407.746 529.806 405.493 530.473 403.62 531.996C401.747 533.519 400.374 535.801 399.744 538.439L396.241 554.485C395.946 555.708 395.876 556.995 396.036 558.255C396.196 559.515 396.582 560.716 397.166 561.772C397.75 562.829 398.518 563.715 399.415 564.367C400.312 565.019 401.316 565.421 402.355 565.545Z" fill="white"/>
<path d="M439.08 573.01C438.631 573.048 438.181 573.048 437.733 573.01L402.21 566.911C401.031 566.752 399.894 566.28 398.881 565.526C397.868 564.772 397.003 563.756 396.347 562.549C395.69 561.342 395.259 559.974 395.083 558.541C394.908 557.108 394.992 555.646 395.329 554.257L398.811 538.211C399.517 535.279 401.047 532.746 403.132 531.056C405.217 529.366 407.724 528.629 410.21 528.973L445.795 534.845C446.985 535.022 448.131 535.506 449.157 536.265C450.182 537.025 451.064 538.042 451.743 539.249C452.392 540.461 452.82 541.83 452.999 543.262C453.178 544.694 453.103 546.156 452.779 547.55L449.256 563.722C448.59 566.391 447.244 568.731 445.414 570.402C443.584 572.072 441.365 572.986 439.08 573.01ZM408.904 531.276C407.067 531.312 405.289 532.07 403.833 533.438C402.377 534.805 401.321 536.71 400.822 538.869L397.319 554.915C397.078 555.955 397.022 557.047 397.154 558.116C397.286 559.186 397.604 560.208 398.086 561.115C398.581 562.021 399.233 562.783 399.996 563.347C400.759 563.911 401.614 564.264 402.5 564.38L438.023 570.48C440.028 570.784 442.057 570.208 443.746 568.854C445.436 567.5 446.676 565.457 447.246 563.089L450.769 546.892C451.016 545.849 451.077 544.754 450.949 543.68C450.82 542.606 450.504 541.578 450.023 540.666C449.512 539.748 448.843 538.977 448.063 538.409C447.282 537.84 446.409 537.488 445.505 537.376L409.92 531.479C409.585 531.386 409.246 531.318 408.904 531.276Z" fill="#E6E7E8"/>
<path d="M546.415 155.114L492.115 149.571C491.98 149.559 491.848 149.513 491.727 149.437C491.606 149.361 491.499 149.256 491.412 149.129C491.325 149.001 491.26 148.854 491.221 148.695C491.181 148.536 491.168 148.37 491.183 148.205C491.209 147.873 491.341 147.568 491.551 147.355C491.76 147.141 492.03 147.038 492.302 147.066L546.601 152.608C546.876 152.608 547.14 152.742 547.334 152.979C547.528 153.216 547.638 153.538 547.638 153.874C547.638 154.209 547.528 154.531 547.334 154.769C547.14 155.006 546.876 155.139 546.601 155.139L546.415 155.114Z" fill="#E6E7E8"/>
<path d="M484.571 148.812H484.468L477.276 148.078C477.14 148.065 477.007 148.02 476.885 147.944C476.763 147.868 476.655 147.764 476.567 147.637C476.478 147.51 476.411 147.363 476.369 147.204C476.327 147.045 476.311 146.878 476.323 146.711C476.354 146.38 476.487 146.076 476.694 145.86C476.902 145.644 477.169 145.532 477.442 145.547L484.654 146.281C484.926 146.313 485.176 146.475 485.35 146.731C485.525 146.986 485.61 147.316 485.587 147.648C485.571 147.963 485.457 148.26 485.268 148.476C485.079 148.692 484.83 148.813 484.571 148.812Z" fill="#E6E7E8"/>
<path d="M464.8 475.648C464.631 475.648 464.466 475.598 464.317 475.501C464.169 475.403 464.043 475.263 463.95 475.091L412.137 384.284C412.051 384.148 411.989 383.992 411.953 383.826C411.918 383.66 411.911 383.487 411.932 383.317C411.953 383.147 412.003 382.985 412.077 382.839C412.152 382.693 412.25 382.567 412.365 382.469C412.48 382.371 412.611 382.303 412.749 382.269C412.887 382.234 413.029 382.234 413.166 382.269C413.304 382.304 413.434 382.373 413.55 382.471C413.665 382.569 413.763 382.695 413.837 382.841L465.649 473.649C465.803 473.929 465.86 474.27 465.81 474.601C465.759 474.932 465.605 475.226 465.38 475.42C465.211 475.57 465.008 475.65 464.8 475.648Z" fill="white"/>
<path d="M436.386 435.255L369.734 428.144C369.598 428.131 369.465 428.085 369.343 428.01C369.222 427.934 369.113 427.83 369.025 427.703C368.936 427.576 368.869 427.428 368.827 427.27C368.785 427.111 368.77 426.943 368.781 426.777C368.807 426.444 368.939 426.136 369.148 425.918C369.356 425.701 369.626 425.592 369.9 425.613L436.572 432.725C436.842 432.763 437.089 432.926 437.262 433.18C437.436 433.435 437.523 433.761 437.505 434.091C437.494 434.258 437.457 434.42 437.395 434.569C437.333 434.717 437.248 434.849 437.144 434.958C437.04 435.066 436.919 435.148 436.789 435.199C436.659 435.25 436.522 435.269 436.386 435.255Z" fill="#231F20"/>
<path d="M419.101 448.669H418.998L365.32 442.772C365.183 442.759 365.051 442.714 364.929 442.638C364.807 442.562 364.699 442.458 364.61 442.331C364.522 442.204 364.454 442.057 364.413 441.898C364.371 441.739 364.355 441.572 364.366 441.405C364.379 441.239 364.419 441.077 364.484 440.93C364.548 440.782 364.636 440.651 364.742 440.546C364.848 440.44 364.97 440.36 365.101 440.313C365.232 440.265 365.37 440.249 365.506 440.266L419.184 446.163C419.32 446.176 419.453 446.222 419.575 446.297C419.697 446.373 419.805 446.478 419.894 446.605C419.982 446.732 420.049 446.879 420.091 447.038C420.133 447.196 420.149 447.364 420.137 447.53C420.107 447.841 419.985 448.128 419.795 448.338C419.604 448.547 419.358 448.665 419.101 448.669Z" fill="#231F20"/>
<path d="M565.295 295.956L498.623 288.845C498.348 288.814 498.094 288.652 497.918 288.393C497.741 288.135 497.655 287.801 497.68 287.465C497.705 287.13 497.838 286.82 498.049 286.604C498.261 286.388 498.535 286.284 498.809 286.314L565.461 293.425C565.734 293.458 565.986 293.618 566.164 293.873C566.342 294.128 566.432 294.458 566.414 294.792C566.404 294.958 566.367 295.121 566.305 295.269C566.243 295.418 566.157 295.55 566.053 295.659C565.949 295.767 565.829 295.849 565.699 295.9C565.568 295.951 565.431 295.97 565.295 295.956Z" fill="#231F20"/>
<path d="M548.01 309.37H547.907L494.208 303.473C493.937 303.441 493.687 303.28 493.512 303.024C493.338 302.768 493.253 302.438 493.276 302.107C493.286 301.941 493.323 301.78 493.386 301.633C493.448 301.485 493.534 301.355 493.638 301.248C493.743 301.142 493.863 301.063 493.993 301.014C494.123 300.966 494.26 300.95 494.395 300.968L548.093 306.865C548.229 306.877 548.361 306.923 548.481 306.999C548.602 307.075 548.709 307.18 548.796 307.307C548.883 307.435 548.948 307.582 548.988 307.741C549.027 307.9 549.04 308.066 549.026 308.231C549.001 308.54 548.883 308.827 548.696 309.037C548.509 309.247 548.265 309.366 548.01 309.37Z" fill="#231F20"/>
<path d="M414.023 243.163L475.535 248.047C476.379 248.107 477.201 248.39 477.946 248.876C478.691 249.362 479.34 250.041 479.849 250.864C480.358 251.688 480.713 252.636 480.892 253.645C481.07 254.653 481.067 255.696 480.882 256.703L471.059 302.258C470.66 304.476 469.623 306.444 468.136 307.805C466.648 309.167 464.81 309.83 462.955 309.674L402.044 304.612C401.2 304.536 400.379 304.233 399.642 303.725C398.904 303.216 398.268 302.515 397.779 301.67C397.289 300.826 396.959 299.86 396.812 298.842C396.664 297.823 396.703 296.777 396.925 295.779L406.065 250.224C406.51 248.099 407.549 246.231 409.002 244.942C410.455 243.653 412.231 243.024 414.023 243.163Z" fill="white"/>
<path d="M463.598 310.914H462.851L401.961 305.852C400.986 305.769 400.038 305.427 399.182 304.85C398.327 304.273 397.585 303.475 397.008 302.512C396.411 301.505 395.998 300.354 395.798 299.136C395.598 297.917 395.614 296.66 395.847 295.451L404.987 249.895C405.49 247.469 406.669 245.334 408.322 243.856C409.975 242.377 411.999 241.649 414.044 241.796L475.535 246.706C476.516 246.787 477.472 247.126 478.336 247.699C479.201 248.273 479.954 249.067 480.544 250.028C481.134 250.989 481.547 252.094 481.756 253.268C481.965 254.441 481.964 255.656 481.753 256.83L471.908 302.385C471.505 304.738 470.467 306.858 468.96 308.404C467.453 309.951 465.565 310.835 463.598 310.914ZM413.443 244.378C411.97 244.417 410.548 245.044 409.395 246.164C408.242 247.284 407.422 248.835 407.06 250.578L397.941 296.134C397.751 296.993 397.72 297.892 397.849 298.767C397.978 299.642 398.264 300.471 398.687 301.196C399.09 301.863 399.605 302.416 400.199 302.818C400.793 303.22 401.45 303.46 402.127 303.524L463.038 308.586C464.641 308.728 466.233 308.158 467.52 306.982C468.807 305.805 469.703 304.101 470.043 302.183L479.867 256.627C480.01 255.816 480.01 254.976 479.867 254.164C479.724 253.353 479.442 252.587 479.038 251.92C478.613 251.236 478.074 250.672 477.455 250.266C476.836 249.86 476.153 249.621 475.452 249.566L413.961 244.656H413.443V244.378Z" fill="#231F20"/>
<path d="M433.691 297.829C434.645 296.944 435.557 296.058 436.489 295.298C439.101 292.919 441.733 290.591 444.344 288.237C446.085 286.694 447.805 285.124 449.422 283.378C450.875 281.867 452.12 280.081 453.111 278.089C453.731 276.747 454.218 275.319 454.561 273.837C454.857 272.551 455.072 271.24 455.204 269.914C455.468 267.803 455.131 265.646 454.248 263.803C453.365 261.96 451.99 260.543 450.354 259.79C448.604 259.007 446.71 258.829 444.882 259.276C443.053 259.722 441.361 260.776 439.992 262.321C439.222 263.062 438.526 263.912 437.919 264.852L437.795 265.029V264.776C437.03 262.722 435.763 261.007 434.168 259.866C432.709 258.847 431.038 258.372 429.36 258.5C427.26 258.628 425.24 259.521 423.559 261.063C421.878 262.606 420.615 264.728 419.93 267.155C419.599 268.428 419.397 269.745 419.329 271.078C419.184 272.473 419.184 273.885 419.329 275.279C419.563 277.345 420.18 279.319 421.132 281.05C422.108 282.811 423.211 284.463 424.427 285.985C426.231 288.313 428.075 290.591 429.899 292.945C431.122 294.539 432.324 296.184 433.546 297.829H433.691Z" fill="#D1D3D4"/>
<path d="M394.977 347.865L441.629 354.116C442.268 354.198 442.884 354.449 443.436 354.851C443.988 355.253 444.461 355.797 444.824 356.444C445.186 357.092 445.429 357.828 445.536 358.601C445.643 359.375 445.611 360.167 445.443 360.924L436.717 395.116C436.358 396.781 435.519 398.233 434.354 399.204C433.189 400.176 431.777 400.602 430.375 400.405L384.179 394.154C383.539 394.061 382.923 393.796 382.376 393.378C381.829 392.961 381.365 392.4 381.016 391.737C380.668 391.075 380.444 390.326 380.36 389.545C380.276 388.764 380.335 387.97 380.532 387.22L388.718 353.002C389.108 351.389 389.946 349.993 391.089 349.055C392.232 348.117 393.607 347.696 394.977 347.865Z" fill="white"/>
<path d="M431.08 401.747C430.797 401.772 430.513 401.772 430.23 401.747L384.055 395.445C383.279 395.335 382.533 395.02 381.867 394.522C381.201 394.024 380.632 393.354 380.2 392.56C379.76 391.739 379.473 390.811 379.358 389.84C379.243 388.87 379.305 387.88 379.537 386.941L387.827 352.698C388.298 350.808 389.29 349.176 390.635 348.078C391.98 346.98 393.595 346.484 395.205 346.675L441.836 352.926C442.627 353.035 443.389 353.348 444.071 353.846C444.754 354.343 445.342 355.014 445.795 355.811C446.236 356.607 446.533 357.509 446.665 358.456C446.798 359.403 446.762 360.374 446.562 361.303L437.816 395.571C437.399 397.358 436.515 398.928 435.299 400.044C434.083 401.159 432.601 401.757 431.08 401.747ZM394.293 349.079C393.262 349.101 392.262 349.521 391.439 350.281C390.616 351.041 390.011 352.1 389.713 353.306L381.527 387.549C381.38 388.139 381.34 388.761 381.408 389.372C381.476 389.984 381.651 390.57 381.92 391.092C382.192 391.576 382.546 391.985 382.956 392.29C383.367 392.595 383.827 392.791 384.304 392.863L430.479 399.216C431.635 399.38 432.801 399.03 433.764 398.231C434.727 397.431 435.422 396.236 435.723 394.863L444.448 360.595C444.574 360.025 444.597 359.429 444.514 358.847C444.432 358.266 444.247 357.714 443.971 357.229C443.689 356.726 443.32 356.304 442.891 355.994C442.461 355.683 441.981 355.491 441.484 355.432L394.874 349.181C394.684 349.12 394.489 349.086 394.293 349.079Z" fill="#231F20"/>
<path d="M489.877 325.821L554.497 333.818C555.14 333.829 555.772 334.015 556.347 334.362C556.923 334.709 557.428 335.209 557.825 335.825C558.223 336.441 558.502 337.158 558.644 337.923C558.785 338.688 558.785 339.482 558.642 340.247L547.948 388.839C547.481 390.506 546.553 391.923 545.325 392.847C544.096 393.77 542.642 394.143 541.213 393.901L476.634 383.778C476.015 383.74 475.412 383.533 474.868 383.173C474.323 382.813 473.852 382.308 473.488 381.697C473.124 381.085 472.877 380.381 472.765 379.638C472.653 378.894 472.679 378.13 472.841 377.4L483.452 330.781C483.898 329.182 484.778 327.818 485.947 326.916C487.116 326.013 488.503 325.627 489.877 325.821Z" fill="white"/>
<path d="M542.083 395.091C541.773 395.116 541.461 395.116 541.151 395.091L476.592 384.967C475.768 384.888 474.968 384.586 474.251 384.082C473.534 383.579 472.918 382.887 472.447 382.057C472.043 381.322 471.777 380.487 471.67 379.611C471.562 378.736 471.615 377.842 471.825 376.995L482.437 330.376C482.941 328.512 483.957 326.918 485.312 325.862C486.668 324.806 488.28 324.353 489.877 324.581L554.497 332.553C555.37 332.628 556.218 332.934 556.984 333.45C557.75 333.966 558.415 334.679 558.933 335.539C559.346 336.269 559.622 337.101 559.74 337.977C559.858 338.852 559.816 339.748 559.617 340.601L549.026 389.093C548.55 390.871 547.618 392.414 546.367 393.494C545.117 394.575 543.615 395.134 542.083 395.091ZM489.297 327.036C488.261 327.016 487.245 327.39 486.391 328.107C485.537 328.823 484.887 329.847 484.53 331.035L473.919 377.653C473.804 378.149 473.776 378.669 473.836 379.179C473.897 379.69 474.045 380.179 474.271 380.614C474.57 381.125 474.957 381.551 475.404 381.861C475.852 382.172 476.349 382.359 476.862 382.411L541.42 392.535C542.593 392.764 543.795 392.488 544.82 391.754C545.844 391.019 546.628 389.873 547.037 388.51L557.71 339.918C557.83 339.424 557.857 338.903 557.788 338.395C557.72 337.886 557.559 337.403 557.316 336.982C556.973 336.423 556.533 335.963 556.028 335.635C555.523 335.307 554.965 335.119 554.394 335.084L489.773 327.086H489.297V327.036Z" fill="#231F20"/>
<path d="M523.265 379.45L530.933 380.614L536.342 356.191L528.674 355.154L523.265 379.45Z" fill="#D1D3D4"/>
<path d="M530.933 381.019L523.265 379.88C523.219 379.871 523.175 379.851 523.135 379.82C523.096 379.789 523.063 379.748 523.037 379.701C523.012 379.653 522.995 379.599 522.988 379.543C522.981 379.486 522.983 379.429 522.995 379.374L528.405 355.078C528.42 354.981 528.465 354.896 528.531 354.839C528.596 354.782 528.678 354.759 528.757 354.774L536.425 355.837C536.472 355.844 536.516 355.863 536.556 355.894C536.595 355.924 536.629 355.965 536.653 356.014C536.686 356.111 536.686 356.22 536.653 356.318L531.244 380.741C531.222 380.821 531.181 380.891 531.125 380.941C531.069 380.99 531.002 381.018 530.933 381.019ZM523.679 379.121L530.684 380.184L535.928 356.545L528.923 355.584L523.679 379.121Z" fill="#D1D3D4"/>
<path d="M525.338 356.773C525.338 356.773 519.12 353.989 517.462 349.181C515.804 344.372 516.902 336.703 515.97 336.172C515.102 335.859 514.177 335.881 513.32 336.234C512.464 336.588 511.717 337.255 511.182 338.146C509.69 340.474 508.82 347.611 510.063 352.496C510.063 352.496 501.773 351.256 498.043 350.75C494.312 350.244 492.758 354.065 494.561 355.963C494.561 355.963 491.514 355.963 491.887 359.304C492.26 362.645 493.297 362.898 494.934 363.151C494.934 363.151 492.861 363.429 492.861 365.884C492.861 368.339 495.39 369.301 495.39 369.301C495.06 369.396 494.751 369.58 494.487 369.841C494.223 370.101 494.01 370.431 493.865 370.805C493.72 371.179 493.645 371.589 493.647 372.003C493.649 372.418 493.728 372.826 493.877 373.199C494.996 376.084 498.975 376.413 508.384 377.121C517.794 377.83 521.047 375.755 521.047 375.755L525.338 356.773Z" fill="#D1D3D4"/>
<path d="M512.239 377.78C511.099 377.78 509.835 377.78 508.405 377.628C499.058 376.919 494.789 376.59 493.566 373.477C493.398 373.091 493.301 372.665 493.279 372.228C493.258 371.792 493.313 371.354 493.442 370.946C493.692 370.314 494.098 369.792 494.602 369.453C494.042 369.156 493.555 368.684 493.191 368.084C492.827 367.484 492.599 366.778 492.53 366.036C492.505 365.529 492.597 365.024 492.795 364.577C492.992 364.13 493.288 363.759 493.649 363.506C492.53 363.101 491.825 362.24 491.576 359.583C491.511 359.138 491.525 358.682 491.618 358.245C491.711 357.808 491.881 357.401 492.115 357.052C492.589 356.427 493.227 356.024 493.918 355.913C493.682 355.5 493.539 355.018 493.503 354.517C493.466 354.015 493.538 353.51 493.711 353.053C494.117 352.104 494.766 351.343 495.56 350.886C496.353 350.429 497.247 350.301 498.105 350.522C501.276 350.952 507.804 351.914 509.649 352.193C508.571 347.131 509.421 340.424 510.954 338.045C511.528 337.103 512.324 336.397 513.235 336.022C514.146 335.647 515.129 335.62 516.053 335.944C516.612 336.273 516.633 337.488 516.674 340.146C516.546 343.2 516.891 346.257 517.69 349.155C519.348 353.66 525.337 356.419 525.4 356.444C525.473 356.484 525.532 356.554 525.567 356.642C525.601 356.731 525.608 356.831 525.586 356.925L521.441 376.008C521.417 376.103 521.366 376.184 521.296 376.236C521.13 376.261 518.809 377.78 512.239 377.78ZM497.4 351.13C496.779 351.059 496.155 351.213 495.606 351.574C495.057 351.934 494.607 352.483 494.312 353.154C494.148 353.58 494.105 354.061 494.192 354.52C494.278 354.979 494.489 355.39 494.789 355.685C494.827 355.747 494.848 355.822 494.848 355.9C494.848 355.978 494.827 356.054 494.789 356.115C494.768 356.189 494.728 356.252 494.676 356.298C494.624 356.343 494.562 356.368 494.499 356.368C493.768 356.382 493.066 356.724 492.53 357.33C492.351 357.599 492.222 357.914 492.154 358.251C492.086 358.588 492.08 358.939 492.136 359.279C492.468 362.417 493.4 362.544 494.913 362.772C494.994 362.784 495.068 362.832 495.121 362.907C495.175 362.981 495.204 363.077 495.203 363.176C495.203 363.273 495.174 363.366 495.12 363.436C495.066 363.507 494.992 363.55 494.913 363.556C494.913 363.556 493.069 363.86 493.131 365.91C493.193 367.96 495.411 368.947 495.431 368.947C495.493 368.981 495.546 369.034 495.586 369.1C495.626 369.167 495.651 369.245 495.659 369.327C495.658 369.411 495.636 369.493 495.595 369.561C495.554 369.629 495.497 369.68 495.431 369.706C494.814 369.956 494.296 370.48 493.981 371.174C493.885 371.478 493.847 371.804 493.869 372.128C493.89 372.452 493.971 372.766 494.105 373.047C495.162 375.755 499.307 376.059 508.384 376.767C516.674 377.4 520.094 375.831 520.819 375.502L524.964 356.925C523.721 356.318 518.747 353.635 517.172 349.333C516.328 346.341 515.962 343.179 516.094 340.019C516.167 338.838 516.083 337.65 515.845 336.501C515.047 336.246 514.204 336.288 513.425 336.622C512.645 336.955 511.966 337.565 511.472 338.374C510.001 340.652 509.213 347.713 510.395 352.395C510.424 352.452 510.44 352.518 510.44 352.585C510.44 352.652 510.424 352.718 510.395 352.775C510.358 352.823 510.313 352.86 510.262 352.882C510.212 352.904 510.158 352.91 510.105 352.901C510.105 352.901 501.815 351.661 498.105 351.155L497.4 351.13Z" fill="#D1D3D4"/>
<path d="M445.36 493.896L515.825 503.817C518.421 504.041 521.001 503.153 523.119 501.305C525.238 499.457 526.762 496.766 527.431 493.693L538.519 442.595C538.886 441.199 539.001 439.721 538.856 438.265C538.71 436.809 538.306 435.409 537.674 434.162C537.041 432.915 536.194 431.851 535.191 431.044C534.188 430.236 533.054 429.704 531.866 429.485L461.214 418.501C458.549 418.208 455.886 419.084 453.702 420.971C451.518 422.859 449.957 425.635 449.297 428.802L438.458 480.887C438.104 482.299 438.008 483.789 438.175 485.252C438.343 486.714 438.77 488.115 439.428 489.354C440.085 490.594 440.957 491.643 441.982 492.427C443.007 493.212 444.159 493.713 445.36 493.896Z" fill="white"/>
<path d="M516.799 505.158H515.617L445.152 495.237C443.841 495.081 442.573 494.576 441.438 493.758C440.304 492.941 439.329 491.83 438.582 490.504C437.799 489.073 437.277 487.454 437.052 485.755C436.827 484.056 436.903 482.318 437.277 480.659L448.116 428.574C448.865 425.127 450.584 422.111 452.971 420.057C455.359 418.002 458.262 417.039 461.173 417.337L531.824 428.295C533.097 428.485 534.321 429.006 535.415 429.822C536.509 430.639 537.447 431.732 538.166 433.028C538.926 434.496 539.424 436.142 539.627 437.86C539.831 439.578 539.735 441.33 539.347 443L528.259 494.098C527.549 497.182 526.058 499.913 523.999 501.9C521.94 503.886 519.42 505.027 516.799 505.158ZM445.463 492.655L515.928 502.576C518.278 502.756 520.607 501.936 522.519 500.257C524.43 498.578 525.807 496.142 526.415 493.364L537.42 442.24C537.749 440.923 537.838 439.533 537.68 438.169C537.523 436.805 537.123 435.499 536.508 434.344C535.958 433.347 535.238 432.508 534.397 431.883C533.557 431.258 532.615 430.863 531.638 430.725L460.986 419.741C458.573 419.493 456.166 420.298 454.193 422.013C452.22 423.727 450.809 426.24 450.209 429.105L439.37 481.19C439.07 482.501 439.003 483.875 439.175 485.22C439.346 486.565 439.752 487.849 440.365 488.986C440.948 490.01 441.705 490.868 442.585 491.501C443.465 492.135 444.447 492.528 445.463 492.655Z" fill="#231F20"/>
<path d="M468.199 460.235L493.069 484.936C493.552 485.31 494.102 485.537 494.672 485.597C495.242 485.657 495.816 485.548 496.345 485.28C496.873 485.012 497.341 484.592 497.709 484.057C498.076 483.521 498.333 482.885 498.457 482.203L507.141 441.709C507.315 441.062 507.329 440.367 507.182 439.71C507.034 439.053 506.732 438.464 506.312 438.016C505.892 437.568 505.373 437.28 504.82 437.19C504.267 437.1 503.705 437.21 503.203 437.508L469.587 453.376C469.042 453.604 468.553 453.995 468.164 454.513C467.775 455.031 467.499 455.661 467.361 456.343C467.223 457.026 467.227 457.74 467.373 458.42C467.52 459.1 467.803 459.724 468.199 460.235Z" fill="#D1D3D4"/>
<path d="M493.255 261.613L567.699 271.078C569.031 271.129 570.335 270.61 571.386 269.612C572.438 268.614 573.172 267.199 573.461 265.612L585.564 204.871C585.757 204.176 585.82 203.437 585.747 202.708C585.674 201.98 585.467 201.281 585.143 200.663C584.818 200.046 584.384 199.525 583.872 199.141C583.36 198.756 582.784 198.518 582.186 198.442L507.908 190.85C506.627 190.85 505.385 191.381 504.383 192.356C503.382 193.331 502.681 194.691 502.395 196.215L490.167 255.21C489.963 255.877 489.884 256.591 489.935 257.301C489.986 258.01 490.166 258.696 490.462 259.31C490.757 259.924 491.162 260.449 491.645 260.847C492.128 261.245 492.678 261.507 493.255 261.613Z" fill="white"/>
<path d="M507.493 190.824H507.763L582.041 198.417C582.639 198.492 583.215 198.731 583.727 199.115C584.239 199.5 584.673 200.02 584.998 200.638C585.322 201.255 585.529 201.954 585.602 202.683C585.675 203.411 585.612 204.15 585.419 204.845L573.316 265.586C573.035 267.083 572.364 268.427 571.403 269.418C570.443 270.408 569.245 270.991 567.989 271.078H567.554L493.255 261.613C492.679 261.507 492.129 261.245 491.645 260.847C491.162 260.448 490.758 259.923 490.462 259.31C490.166 258.696 489.986 258.01 489.935 257.3C489.884 256.591 489.963 255.877 490.167 255.21L502.395 196.215C502.675 194.759 503.329 193.451 504.261 192.481C505.193 191.511 506.355 190.931 507.576 190.824H507.493ZM507.576 188.293C505.895 188.404 504.288 189.172 502.993 190.485C501.698 191.798 500.783 193.585 500.385 195.582L488.157 254.577C487.902 255.702 487.847 256.88 487.997 258.033C488.148 259.186 488.499 260.286 489.027 261.258C489.484 262.067 490.081 262.742 490.776 263.236C491.471 263.73 492.247 264.032 493.048 264.118L567.471 273.584C567.692 273.608 567.914 273.608 568.135 273.584C569.856 273.494 571.505 272.718 572.83 271.374C574.155 270.03 575.083 268.192 575.471 266.143L587.575 205.402C587.818 204.274 587.858 203.096 587.694 201.947C587.529 200.798 587.163 199.706 586.621 198.746C586.133 197.905 585.5 197.207 584.765 196.699C584.031 196.192 583.214 195.888 582.373 195.81L508.094 188.218L507.576 188.293Z" fill="#231F20"/>
<path d="M534.705 244.226C534.541 244.228 534.379 244.183 534.231 244.095C534.084 244.007 533.955 243.879 533.855 243.719L503.617 192.874C503.46 192.601 503.396 192.263 503.438 191.932C503.481 191.602 503.627 191.304 503.845 191.103C503.957 191.006 504.083 190.936 504.216 190.899C504.35 190.862 504.488 190.857 504.623 190.885C504.758 190.914 504.886 190.974 505.002 191.064C505.118 191.153 505.218 191.27 505.296 191.406L534.788 241.214L584.3 199.277C584.529 199.09 584.809 199.02 585.08 199.082C585.351 199.143 585.592 199.331 585.751 199.606C585.829 199.744 585.885 199.899 585.913 200.063C585.942 200.227 585.944 200.396 585.919 200.561C585.894 200.726 585.843 200.883 585.767 201.023C585.692 201.163 585.595 201.284 585.481 201.378L535.223 243.998C535.07 244.128 534.891 244.207 534.705 244.226Z" fill="#D1D3D4"/>
<path d="M490.582 260.955C490.41 260.957 490.241 260.907 490.089 260.81C489.937 260.713 489.807 260.571 489.711 260.398C489.56 260.115 489.506 259.771 489.56 259.44C489.614 259.108 489.773 258.816 490.001 258.626L526.726 229.648C526.954 229.465 527.233 229.399 527.501 229.465C527.769 229.532 528.004 229.725 528.156 230.002C528.307 230.285 528.361 230.629 528.307 230.96C528.253 231.291 528.094 231.583 527.866 231.774L491.183 260.752C491.006 260.898 490.795 260.969 490.582 260.955Z" fill="#D1D3D4"/>
<path d="M570.995 271.129C570.839 271.13 570.685 271.087 570.544 271.004C570.404 270.92 570.282 270.798 570.186 270.648L545.814 233.571C545.644 233.308 545.567 232.975 545.598 232.643C545.629 232.311 545.766 232.008 545.98 231.799C546.085 231.693 546.206 231.615 546.337 231.567C546.468 231.52 546.605 231.506 546.74 231.525C546.876 231.544 547.006 231.595 547.125 231.677C547.244 231.759 547.347 231.87 547.43 232.002L571.803 269.079C571.891 269.206 571.956 269.353 571.997 269.511C572.037 269.67 572.051 269.837 572.037 270.002C572.024 270.167 571.983 270.327 571.918 270.473C571.853 270.619 571.764 270.747 571.658 270.85C571.465 271.024 571.234 271.122 570.995 271.129Z" fill="#D1D3D4"/>
<path d="M344.947 383.55C350.022 371.193 356.978 360.13 365.444 350.952C379.04 336.602 387.185 326.175 382.915 323.341C378.646 320.506 364.511 332.756 364.511 332.756L375.206 284.922C375.206 284.922 351.641 303.878 344.947 320C338.253 336.122 325.051 370.136 325.051 370.136L344.947 383.55Z" fill="white"/>
<path d="M344.947 384.815C344.773 384.816 344.602 384.764 344.449 384.663L324.553 371.224C324.324 371.069 324.151 370.812 324.07 370.507C323.989 370.201 324.006 369.87 324.118 369.579C324.243 369.25 337.403 335.387 344.035 319.443C350.667 303.499 373.651 284.644 374.625 283.859C374.801 283.715 375.009 283.64 375.221 283.645C375.433 283.649 375.638 283.733 375.81 283.885C375.981 284.036 376.111 284.249 376.181 284.493C376.25 284.737 376.257 285.002 376.2 285.251L366.252 329.769C370.791 326.124 379.682 319.645 383.412 322.176C383.87 322.447 384.263 322.857 384.553 323.367C384.844 323.876 385.022 324.469 385.07 325.087C385.464 329.49 379.972 337.235 366.128 351.863C357.78 360.927 350.917 371.843 345.9 384.031C345.841 384.191 345.755 384.335 345.648 384.452C345.541 384.57 345.415 384.659 345.278 384.714C345.174 384.773 345.062 384.807 344.947 384.815ZM326.398 369.63L344.491 381.829C349.617 369.808 356.484 359.021 364.76 349.991C369.382 345.131 383.412 330.275 383.019 325.416C382.998 325.205 382.931 325.004 382.826 324.835C382.72 324.666 382.579 324.534 382.418 324.454C379.848 322.733 370.749 328.883 365.112 333.793C364.936 333.937 364.728 334.013 364.516 334.01C364.304 334.008 364.098 333.928 363.923 333.781C363.749 333.634 363.615 333.426 363.539 333.184C363.463 332.942 363.448 332.678 363.496 332.426L373.444 287.934C367.392 293.147 351.144 307.902 345.879 320.582C339.89 334.907 328.698 363.784 326.398 369.605V369.63Z" fill="#231F20"/>
<path d="M488.426 196.747L421.775 189.635C421.501 189.603 421.249 189.442 421.071 189.187C420.894 188.932 420.804 188.603 420.821 188.268C420.832 188.102 420.869 187.94 420.931 187.791C420.993 187.642 421.078 187.51 421.182 187.402C421.286 187.294 421.407 187.212 421.537 187.161C421.667 187.11 421.804 187.09 421.94 187.104L488.509 194.216C488.784 194.216 489.047 194.349 489.242 194.587C489.436 194.824 489.545 195.146 489.545 195.481C489.545 195.817 489.436 196.139 489.242 196.376C489.047 196.613 488.784 196.747 488.509 196.747H488.426Z" fill="#231F20"/>
<path d="M471.121 210.059L417.422 204.162C417.287 204.15 417.155 204.104 417.034 204.028C416.913 203.952 416.806 203.847 416.719 203.72C416.633 203.592 416.567 203.445 416.528 203.286C416.488 203.127 416.475 202.96 416.49 202.796C416.5 202.629 416.537 202.467 416.599 202.318C416.661 202.17 416.747 202.037 416.851 201.929C416.955 201.821 417.076 201.739 417.206 201.688C417.336 201.637 417.473 201.617 417.609 201.631L471.307 207.554C471.582 207.57 471.84 207.72 472.025 207.969C472.21 208.218 472.306 208.547 472.292 208.882C472.278 209.218 472.156 209.533 471.952 209.758C471.748 209.984 471.479 210.101 471.204 210.084L471.121 210.059Z" fill="#231F20"/>
<path d="M325.528 207.756C325.528 207.756 339.558 236 336.305 241.568C333.051 247.136 322.896 242.859 322.896 242.859" fill="white"/>
<path d="M330.232 245.694C327.625 245.612 325.042 245.066 322.564 244.074C322.428 244.019 322.302 243.932 322.193 243.818C322.085 243.703 321.996 243.564 321.931 243.408C321.867 243.252 321.828 243.081 321.818 242.907C321.807 242.732 321.825 242.557 321.87 242.391C321.915 242.225 321.986 242.071 322.079 241.938C322.173 241.806 322.287 241.697 322.415 241.618C322.543 241.54 322.682 241.492 322.825 241.479C322.968 241.467 323.112 241.488 323.248 241.543C325.859 242.631 333.154 244.631 335.455 240.708C337.527 237.342 330.315 219.727 324.636 208.287C324.565 208.145 324.517 207.986 324.496 207.821C324.475 207.656 324.482 207.487 324.514 207.324C324.547 207.162 324.606 207.009 324.687 206.875C324.769 206.74 324.871 206.627 324.989 206.541C325.226 206.372 325.508 206.322 325.775 206.402C326.042 206.482 326.273 206.687 326.419 206.971C328.823 211.805 340.636 236.228 337.134 242.176C336.298 243.394 335.235 244.35 334.034 244.962C332.833 245.574 331.529 245.825 330.232 245.694Z" fill="#231F20"/>
<path d="M244.555 259.715C234.192 259.942 225.177 255.463 213.923 247.06C210.732 244.706 207.084 240.961 208.1 236.608C208.671 235.226 209.102 233.764 209.385 232.255C209.385 229.724 207.312 228.003 205.633 226.484C202.847 223.933 200.709 220.47 199.466 216.497C198.224 212.523 197.928 208.202 198.613 204.031C199.298 199.861 200.936 196.013 203.338 192.933C205.739 189.852 208.806 187.664 212.182 186.623C209.203 183.001 207.125 178.423 206.188 173.419C205.25 168.414 205.493 163.188 206.887 158.345C208.282 153.501 210.771 149.239 214.066 146.052C217.361 142.865 221.329 140.882 225.509 140.334C222.545 140.713 228.7 120.087 229.654 118.163C233.406 111.076 238.996 105.729 245.529 102.978C249.848 101.2 254.432 100.591 258.963 101.194C263.494 101.797 267.863 103.598 271.767 106.471C273.57 100.903 278.689 97.7897 283.58 97.5366C288.494 97.6581 293.337 98.9925 297.818 101.459C303.269 103.99 309.175 107.23 311.538 113.709C311.905 115.122 312.466 116.448 313.196 117.632C314.392 118.828 315.819 119.63 317.341 119.96C333.755 126.211 337.03 156.379 325.755 169.211C323.683 171.463 321.61 170.35 319.952 173.134C318.875 174.981 318.73 180.093 318.149 182.447C316.687 188.161 314.756 193.681 312.388 198.923C307.177 209.913 300.915 220.107 293.735 229.294C285.037 241.224 274.059 250.343 261.777 255.842C256.243 258.248 250.428 259.555 244.555 259.715Z" fill="white"/>
<path d="M243.768 260.98C234.462 260.98 225.592 257.234 213.426 248.174C207.043 243.441 206.483 239.088 207.209 236.279C207.378 235.625 207.593 234.989 207.851 234.381C208.171 233.722 208.375 232.989 208.452 232.229C208.452 230.534 207.001 229.192 205.551 227.902L205.136 227.522C202.285 224.945 200.064 221.466 198.712 217.461C197.361 213.456 196.931 209.076 197.468 204.794C198.006 200.512 199.49 196.491 201.762 193.164C204.034 189.837 207.006 187.33 210.359 185.914C207.667 182.119 205.845 177.52 205.08 172.587C204.314 167.653 204.632 162.56 206 157.824C207.369 153.089 209.739 148.88 212.871 145.626C216.002 142.372 219.783 140.188 223.83 139.296C223.312 133.855 228.245 118.543 228.825 117.404C232.699 110.045 238.488 104.491 245.26 101.637C249.537 99.87 254.069 99.2141 258.566 99.7109C263.063 100.208 267.425 101.846 271.373 104.522C272.673 101.984 274.474 99.8851 276.61 98.4171C278.746 96.9492 281.15 96.1591 283.601 96.1194C288.658 96.2167 293.644 97.5776 298.254 100.118C303.829 102.649 309.984 106.066 312.533 113.051L312.906 114.089C313.145 115.006 313.517 115.863 314.005 116.619C314.869 117.502 315.903 118.103 317.01 118.366L317.673 118.593C325.092 121.428 330.709 129.451 332.699 140.081C334.771 151.52 332.408 163.263 326.481 169.995C325.556 170.974 324.444 171.653 323.248 171.969C322.271 172.138 321.387 172.764 320.782 173.716C320.183 175.42 319.819 177.232 319.704 179.081C319.579 180.284 319.392 181.476 319.144 182.65C317.637 188.424 315.65 193.995 313.217 199.277C307.923 210.272 301.586 220.466 294.337 229.648C285.527 241.732 274.406 250.965 261.964 256.526C256.402 259.049 250.547 260.475 244.617 260.752H243.768V260.98ZM225.613 141.498C221.631 142.03 217.854 143.925 214.717 146.966C211.579 150.007 209.21 154.069 207.882 158.683C206.554 163.297 206.321 168.276 207.21 173.045C208.1 177.814 210.075 182.179 212.908 185.636C213.039 185.795 213.134 185.993 213.181 186.211C213.228 186.429 213.227 186.659 213.178 186.876C213.126 187.09 213.031 187.284 212.9 187.439C212.769 187.594 212.608 187.705 212.431 187.762C209.225 188.731 206.31 190.794 204.027 193.708C201.743 196.623 200.185 200.27 199.533 204.224C198.882 208.179 199.164 212.278 200.346 216.044C201.529 219.811 203.564 223.089 206.214 225.497L206.628 225.852C208.328 227.395 210.463 229.294 210.38 232.331C210.297 233.435 210.021 234.505 209.571 235.469C209.373 235.953 209.2 236.451 209.053 236.962C208.224 240.531 211.52 243.846 214.421 246.023C226.587 255.058 235.312 258.677 244.493 258.449C250.204 258.177 255.843 256.793 261.197 254.349C273.322 248.947 284.155 239.945 292.72 228.155C299.876 219.082 306.136 209.016 311.373 198.164C313.725 192.998 315.642 187.554 317.093 181.916C317.307 180.856 317.473 179.783 317.59 178.702C317.713 176.453 318.207 174.258 319.041 172.248C319.912 170.819 321.192 169.843 322.626 169.514C323.501 169.314 324.316 168.833 324.989 168.123C330.377 162.023 332.574 151.216 330.605 140.663C328.761 130.767 323.787 123.605 316.968 121.023L316.347 120.77C314.872 120.391 313.515 119.514 312.429 118.239C311.743 117.269 311.222 116.142 310.896 114.924C310.896 114.62 310.689 114.291 310.564 113.987C308.347 107.888 302.627 104.8 297.425 102.396C293.078 99.983 288.375 98.6742 283.601 98.549C279.456 98.7768 274.441 101.384 272.7 106.698C272.641 106.869 272.553 107.023 272.443 107.149C272.332 107.276 272.201 107.372 272.057 107.432C271.778 107.568 271.466 107.568 271.187 107.432C267.421 104.641 263.199 102.894 258.82 102.312C254.44 101.73 250.009 102.329 245.84 104.066C239.519 106.722 234.116 111.902 230.504 118.771C229.571 120.618 225.198 136.132 225.758 139.018C225.961 139.083 226.143 139.222 226.28 139.416C226.417 139.61 226.502 139.851 226.524 140.106C226.554 140.438 226.474 140.77 226.303 141.031C226.132 141.292 225.884 141.46 225.613 141.498Z" fill="#231F20"/>
<path d="M323.31 169.869C324.055 170.372 324.716 171.041 325.258 171.843C327.548 175.451 328.982 179.759 329.403 184.295C330.605 193.583 329.175 203.023 328.823 212.337C328.132 230.643 327.096 248.908 325.714 267.13C324.844 278.696 300.243 277.785 296.015 274.115L298.44 320.101L247.54 293.476L250.856 255.69C250.856 255.69 267.581 256.627 277.922 233.444C280.851 226.436 282.944 218.954 284.14 211.223C285.321 204.643 287.87 195.253 287.725 188.597C287.547 185.607 287.009 182.665 286.129 179.866C288.207 181.18 290.621 181.461 292.865 180.65C293.658 180.14 294.348 179.422 294.886 178.546C295.423 177.671 295.795 176.661 295.974 175.589C296.299 173.409 296.355 171.183 296.14 168.983C297.212 169.782 298.409 170.303 299.654 170.512C300.899 170.722 302.166 170.615 303.376 170.199C304.585 169.784 305.712 169.068 306.685 168.097C307.658 167.125 308.456 165.919 309.031 164.554C309.59 167.439 312.471 168.426 314.875 168.882C318.295 169.489 320.865 168.249 323.31 169.869Z" fill="white"/>
<path d="M298.44 321.367C298.304 321.404 298.162 321.404 298.025 321.367L247.125 294.742C246.923 294.628 246.754 294.44 246.643 294.204C246.531 293.969 246.483 293.697 246.503 293.426L249.819 255.665C249.85 255.345 249.978 255.051 250.177 254.841C250.377 254.63 250.633 254.518 250.897 254.526C251.539 254.526 267.124 255.108 277.01 232.938C279.867 226.035 281.912 218.673 283.083 211.071C283.414 209.274 283.829 207.275 284.264 205.2C285.613 199.849 286.413 194.315 286.647 188.724C286.478 185.86 285.954 183.044 285.093 180.372C285.029 180.145 285.019 179.9 285.065 179.666C285.111 179.432 285.211 179.22 285.352 179.052C285.493 178.885 285.671 178.77 285.863 178.722C286.056 178.673 286.256 178.692 286.44 178.778C288.268 179.951 290.39 180.249 292.388 179.613C293.047 179.174 293.617 178.559 294.055 177.814C294.493 177.069 294.787 176.213 294.917 175.31C295.226 173.265 295.274 171.173 295.062 169.11C295.045 168.871 295.085 168.633 295.177 168.421C295.269 168.21 295.409 168.036 295.58 167.92C295.745 167.797 295.935 167.732 296.129 167.732C296.323 167.732 296.513 167.797 296.678 167.92C297.634 168.601 298.694 169.036 299.792 169.199C300.891 169.362 302.005 169.25 303.066 168.868C304.128 168.487 305.114 167.844 305.965 166.981C306.816 166.117 307.514 165.05 308.015 163.845C308.107 163.609 308.255 163.413 308.44 163.282C308.625 163.151 308.838 163.091 309.051 163.111C309.267 163.132 309.472 163.236 309.637 163.409C309.801 163.582 309.915 163.815 309.963 164.073C310.295 165.769 311.911 166.857 314.958 167.465C316.174 167.659 317.401 167.718 318.626 167.642C320.403 167.397 322.201 167.747 323.828 168.654C324.681 169.232 325.439 169.995 326.066 170.907C328.506 174.711 330.008 179.284 330.398 184.092C331.07 190.816 331.07 197.615 330.398 204.339C330.211 207.022 330.025 209.705 329.921 212.362C329.237 230.61 328.18 249.06 326.812 267.206C326.647 269.458 325.569 272.622 321.486 274.799C314.688 278.62 302.481 278.266 297.217 276.039L299.518 319.899C299.527 320.114 299.492 320.328 299.416 320.523C299.34 320.718 299.225 320.886 299.082 321.012C298.907 321.215 298.681 321.34 298.44 321.367ZM248.7 292.667L297.259 318.228L294.958 274.292C294.951 274.053 294.997 273.816 295.092 273.606C295.187 273.396 295.327 273.223 295.497 273.103C295.662 272.98 295.852 272.915 296.046 272.915C296.24 272.915 296.43 272.98 296.595 273.103C299.373 275.634 313.3 276.722 320.554 272.673C323.103 271.23 324.491 269.332 324.699 267.029C326.066 248.908 327.123 230.508 327.807 212.312C327.807 209.603 328.097 206.87 328.305 204.162C328.957 197.64 328.957 191.045 328.305 184.523C327.95 180.212 326.615 176.11 324.45 172.678C323.984 172.014 323.43 171.45 322.813 171.008C321.507 170.327 320.076 170.082 318.668 170.299C317.318 170.388 315.965 170.321 314.626 170.097C312.499 169.858 310.492 168.783 308.906 167.034C307.553 169.131 305.692 170.652 303.589 171.379C301.486 172.107 299.249 172.003 297.196 171.084C297.264 172.67 297.167 174.26 296.906 175.816C296.699 177.093 296.26 178.297 295.622 179.34C294.984 180.382 294.162 181.237 293.217 181.84C291.427 182.664 289.453 182.664 287.663 181.84C288.253 183.999 288.595 186.248 288.678 188.521C288.469 194.354 287.647 200.129 286.233 205.706C285.798 207.756 285.383 209.73 285.072 211.476C283.876 219.312 281.783 226.903 278.855 234.026C269.777 254.273 255.622 256.804 251.809 256.804L248.7 292.667Z" fill="#231F20"/>
<path d="M296.368 216.487C296.368 211.907 294.482 207.68 292.554 203.833C291.199 200.679 289.459 197.794 287.394 195.279C286.373 194.003 285.134 193.019 283.765 192.397C282.396 191.776 280.932 191.533 279.477 191.685C278.215 192.017 277.025 192.668 275.983 193.596C274.94 194.525 274.069 195.71 273.425 197.076C272.203 199.849 271.496 202.916 271.353 206.06C270.897 212.916 271.924 219.798 274.332 226.017C276.74 232.236 280.444 237.572 285.072 241.492L284.285 240.354" fill="white"/>
<path d="M284.989 242.96C284.782 242.955 284.58 242.876 284.409 242.732C279.63 238.663 275.807 233.137 273.32 226.703C270.833 220.269 269.769 213.152 270.233 206.06C270.406 202.71 271.192 199.449 272.534 196.519C273.245 194.987 274.219 193.66 275.389 192.629C276.558 191.599 277.896 190.888 279.311 190.546C280.904 190.321 282.517 190.534 284.034 191.169C285.551 191.804 286.933 192.845 288.077 194.216C290.22 196.808 292.023 199.787 293.424 203.048C295.228 206.769 297.466 211.4 297.383 216.487C297.372 216.821 297.256 217.136 297.059 217.367C296.862 217.599 296.599 217.728 296.326 217.727C296.19 217.724 296.056 217.688 295.931 217.621C295.806 217.555 295.694 217.459 295.599 217.339C295.505 217.219 295.431 217.078 295.381 216.923C295.332 216.768 295.308 216.603 295.31 216.437C295.31 212.058 293.238 207.781 291.642 204.339C290.338 201.302 288.668 198.521 286.689 196.089C285.763 194.967 284.645 194.109 283.417 193.576C282.188 193.042 280.878 192.846 279.58 193.001C278.462 193.297 277.407 193.879 276.486 194.708C275.564 195.536 274.797 196.593 274.233 197.81C273.029 200.4 272.32 203.29 272.161 206.263C271.762 212.505 272.627 218.772 274.68 224.509C276.733 230.247 279.911 235.28 283.932 239.164C284.102 239.138 284.273 239.164 284.433 239.239C284.592 239.314 284.733 239.436 284.844 239.594L285.632 240.733C285.798 240.964 285.89 241.261 285.89 241.568C285.89 241.876 285.798 242.172 285.632 242.403C285.483 242.681 285.253 242.88 284.989 242.96Z" fill="#231F20"/>
<path d="M236.7 304.283L241.757 284.289L307.663 292.059L311.455 310.433C311.455 310.433 277.01 330.427 236.7 304.283Z" fill="white"/>
<path d="M279.912 318.911C264.673 318.867 249.68 314.224 236.265 305.396C236.053 305.257 235.887 305.032 235.797 304.759C235.706 304.487 235.696 304.184 235.768 303.903L240.804 283.909C240.874 283.634 241.019 283.396 241.215 283.235C241.411 283.074 241.646 282.999 241.882 283.024L307.808 290.819C308.02 290.841 308.222 290.943 308.385 291.111C308.548 291.278 308.665 291.503 308.72 291.755L312.492 310.129C312.553 310.412 312.53 310.711 312.427 310.975C312.325 311.239 312.15 311.45 311.932 311.572C301.768 316.606 290.88 319.102 279.912 318.911ZM237.944 303.726C248.952 310.941 261.091 315.213 273.555 316.256C286.019 317.298 298.522 315.089 310.233 309.775L306.834 293.324L242.483 285.732L237.944 303.726Z" fill="#231F20"/>
<path d="M321.654 203.284C322.821 203.261 323.73 200.309 323.683 196.689C323.637 193.069 322.653 190.153 321.485 190.176C320.318 190.198 319.409 193.15 319.456 196.77C319.502 200.39 320.487 203.306 321.654 203.284Z" fill="#231F20"/>
<path d="M211.395 634.586C211.395 634.586 179.789 377.045 207.499 329.364C223.084 302.537 248.203 301.524 271.187 302.84C289.031 303.802 304.844 302.157 318.626 315.495C350.107 346.245 396.096 619.68 396.096 619.68C396.096 619.68 328.139 677.611 211.395 634.586Z" fill="#EA2550"/>
<path d="M421.639 284.742L429.417 281.623L438.955 317.09C439.274 318.276 439.194 319.568 438.732 320.683C438.271 321.797 437.466 322.642 436.495 323.031L436.042 323.213C435.561 323.406 435.054 323.481 434.549 323.434C434.044 323.388 433.552 323.22 433.1 322.941C432.648 322.662 432.246 322.278 431.916 321.809C431.586 321.34 431.335 320.796 431.177 320.209L421.639 284.742Z" fill="white"/>
<path d="M434.852 324.682C433.817 324.685 432.809 324.287 431.971 323.546C431.133 322.805 430.509 321.758 430.189 320.557L420.655 285.124C420.57 284.806 420.592 284.459 420.717 284.16C420.841 283.861 421.058 283.634 421.319 283.53L429.008 280.265C429.26 280.139 429.543 280.139 429.795 280.265C430.039 280.418 430.225 280.682 430.313 280.999L439.847 316.431C440.051 317.175 440.132 317.96 440.086 318.742C440.04 319.524 439.867 320.287 439.577 320.987C438.99 322.4 437.969 323.473 436.738 323.973L436.282 324.15C435.831 324.417 435.348 324.596 434.852 324.682ZM422.935 285.504L432.158 319.772C432.395 320.638 432.902 321.356 433.569 321.768C434.237 322.18 435.011 322.254 435.723 321.974L436.179 321.797C436.882 321.495 437.467 320.88 437.816 320.076C438.13 319.287 438.182 318.38 437.961 317.545L428.759 283.277L422.935 285.504Z" fill="#231F20"/>
<path d="M423.285 248.958L410.722 253.996L420.053 288.694L432.615 283.656L423.285 248.958Z" fill="white"/>
<path d="M420.054 289.908C419.897 289.946 419.735 289.946 419.578 289.908C419.333 289.755 419.148 289.491 419.06 289.174L409.733 254.476C409.648 254.157 409.67 253.81 409.795 253.511C409.919 253.212 410.136 252.986 410.396 252.881L422.956 247.82C423.08 247.751 423.214 247.716 423.35 247.716C423.485 247.716 423.62 247.751 423.743 247.82C423.866 247.892 423.976 247.994 424.065 248.121C424.154 248.247 424.221 248.394 424.262 248.553L433.588 283.252C433.691 283.56 433.691 283.905 433.588 284.213C433.462 284.512 433.247 284.739 432.987 284.846L420.427 289.908H420.054ZM412.034 254.754L420.718 287.048L431.308 282.796L422.604 250.502L412.034 254.754Z" fill="#231F20"/>
<path d="M434.095 310.534L430.394 312.009C427.947 312.984 426.611 316.196 427.409 319.184L440.638 368.689C441.436 371.676 444.067 373.308 446.514 372.333L450.215 370.858C452.662 369.883 453.998 366.671 453.199 363.683L439.971 314.178C439.172 311.19 436.542 309.559 434.095 310.534Z" fill="white"/>
<path d="M445.712 372.793C444.514 372.789 443.347 372.324 442.376 371.466C441.406 370.608 440.681 369.399 440.303 368.01L426.935 318.506C426.463 316.751 426.579 314.839 427.259 313.188C427.939 311.537 429.127 310.283 430.562 309.699L434.251 308.231C435.686 307.655 437.249 307.798 438.597 308.629C439.946 309.459 440.969 310.909 441.443 312.66L454.769 362.189C455.24 363.941 455.123 365.85 454.443 367.497C453.763 369.143 452.576 370.393 451.142 370.971L447.432 372.439C446.879 372.673 446.298 372.793 445.712 372.793ZM436.096 310.408C435.708 310.409 435.323 310.486 434.956 310.635L431.267 312.103C430.355 312.473 429.6 313.27 429.169 314.319C428.737 315.367 428.665 316.582 428.966 317.697L442.272 367.226C442.583 368.33 443.238 369.239 444.095 369.756C444.518 370.022 444.979 370.181 445.453 370.225C445.926 370.268 446.402 370.195 446.852 370.01L450.541 368.542C450.989 368.355 451.403 368.062 451.759 367.68C452.114 367.298 452.405 366.834 452.613 366.314C452.831 365.799 452.961 365.235 452.997 364.657C453.032 364.079 452.973 363.498 452.821 362.948L439.495 313.445C439.257 312.569 438.802 311.806 438.193 311.262C437.584 310.718 436.851 310.419 436.096 310.408Z" fill="#231F20"/>
<path d="M414.604 285.428C433.982 285.428 449.691 266.245 449.691 242.581C449.691 218.917 433.982 199.733 414.604 199.733C395.226 199.733 379.516 218.917 379.516 242.581C379.516 266.245 395.226 285.428 414.604 285.428Z" fill="white"/>
<path d="M414.645 286.694C405.559 286.705 396.802 282.534 390.122 275.013C383.441 267.491 379.327 257.171 378.6 246.11C377.873 235.049 380.586 224.06 386.199 215.334C391.812 206.607 399.911 200.784 408.883 199.025C417.855 197.267 427.04 199.702 434.607 205.845C442.174 211.988 447.567 221.388 449.712 232.171C451.856 242.954 450.594 254.328 446.176 264.025C441.759 273.722 434.511 281.03 425.878 284.492C422.252 285.944 418.461 286.687 414.645 286.694ZM414.645 200.999C411.047 200.995 407.472 201.696 404.055 203.074C395.917 206.337 389.085 213.225 384.921 222.366C380.757 231.506 379.567 242.227 381.588 252.392C383.609 262.556 388.693 271.417 395.825 277.208C402.958 282.999 411.616 285.295 420.073 283.637C428.53 281.98 436.165 276.492 441.456 268.266C446.747 260.041 449.305 249.682 448.62 239.256C447.935 228.83 444.058 219.102 437.761 212.011C431.464 204.921 423.211 200.989 414.645 200.999Z" fill="#231F20"/>
<path d="M414.604 277.38C430.342 277.38 443.101 261.8 443.101 242.58C443.101 223.361 430.342 207.781 414.604 207.781C398.865 207.781 386.107 223.361 386.107 242.58C386.107 261.8 398.865 277.38 414.604 277.38Z" fill="white"/>
<path d="M414.625 278.645C409.182 278.649 403.844 276.815 399.2 273.347C394.557 269.879 390.789 264.912 388.312 258.994C385.835 253.075 384.745 246.436 385.164 239.809C385.582 233.182 387.492 226.825 390.682 221.44C393.873 216.055 398.22 211.851 403.244 209.293C408.267 206.735 413.772 205.923 419.15 206.945C424.529 207.967 429.571 210.784 433.721 215.085C437.87 219.386 440.966 225.004 442.665 231.318C444.123 236.733 444.509 242.493 443.791 248.126C443.073 253.758 441.273 259.103 438.536 263.721C435.8 268.339 432.206 272.1 428.05 274.694C423.893 277.288 419.292 278.642 414.625 278.645ZM414.625 209.021C408.818 209.007 403.156 211.239 398.452 215.398C393.749 219.556 390.245 225.428 388.443 232.169C386.642 238.911 386.635 246.176 388.425 252.922C390.214 259.668 393.708 265.549 398.404 269.72C403.1 273.891 408.758 276.139 414.565 276.14C420.372 276.141 426.03 273.895 430.727 269.726C435.424 265.556 438.919 259.677 440.71 252.931C442.501 246.186 442.496 238.921 440.697 232.179C438.893 225.434 435.386 219.561 430.68 215.401C425.974 211.241 420.31 209.007 414.5 209.021H414.625Z" fill="#231F20"/>
<path d="M409.754 388.738L411.143 376.084C411.143 375.552 411.847 336.501 414.604 333.489C417.36 330.478 453.132 298.791 455.639 303.119C458.147 307.447 453.132 315.596 453.132 315.596C453.132 315.596 461.525 314.559 460.675 320.658C459.826 326.757 454.81 332.958 454.81 332.958C454.81 332.958 459.95 328.352 460.738 335.008C460.961 336.937 460.762 338.904 460.162 340.708C459.561 342.513 458.58 344.092 457.318 345.283C457.318 345.283 464.883 341.183 463.204 348.852C461.525 356.52 443.121 376.033 443.121 376.033L440.904 392.737L409.754 388.738Z" fill="white"/>
<path d="M440.904 394.154H440.8L409.713 390.105H409.526C408.676 389.801 408.676 389.801 409.941 378.387L410.189 376.134C410.189 375.907 410.728 336.349 414.003 332.73C416.075 330.402 448.261 301.6 454.934 301.6H455.204C455.472 301.623 455.733 301.716 455.969 301.873C456.205 302.03 456.411 302.248 456.572 302.511C458.644 306.08 456.572 311.42 455.183 314.381C457.241 314.294 459.255 315.131 460.841 316.735C461.258 317.316 461.561 318.005 461.726 318.751C461.892 319.497 461.915 320.279 461.794 321.037C461.175 324.423 459.943 327.597 458.188 330.326C458.67 330.314 459.149 330.417 459.598 330.629C460.262 331.043 460.822 331.669 461.22 332.439C461.617 333.21 461.837 334.097 461.857 335.008C462.208 337.828 461.723 340.709 460.489 343.132C461.56 342.929 462.654 343.247 463.535 344.018C464.061 344.73 464.41 345.61 464.543 346.556C464.675 347.501 464.584 348.473 464.281 349.358C462.644 356.95 446.603 374.262 444.157 376.868L442.085 393.117C442.034 393.441 441.884 393.73 441.664 393.923C441.444 394.116 441.172 394.199 440.904 394.154ZM410.915 387.726L440.054 391.497L442.126 375.983C442.155 375.688 442.274 375.417 442.458 375.223C447.515 369.883 460.903 354.698 462.23 348.7C462.52 347.308 462.499 346.295 462.23 345.916C461.504 345.182 459.224 345.916 457.857 346.574C457.622 346.709 457.354 346.729 457.107 346.631C456.86 346.532 456.654 346.321 456.53 346.042C456.397 345.772 456.355 345.45 456.413 345.143C456.471 344.836 456.625 344.569 456.841 344.397C457.946 343.345 458.803 341.956 459.327 340.369C459.851 338.783 460.023 337.056 459.826 335.362C459.701 334.426 459.452 333.287 458.81 332.958C457.794 332.426 456.054 333.666 455.515 334.147C455.304 334.331 455.045 334.413 454.788 334.375C454.531 334.338 454.295 334.184 454.126 333.945C453.953 333.708 453.857 333.402 453.857 333.084C453.857 332.767 453.953 332.46 454.126 332.224C454.126 332.224 458.955 326.276 459.722 320.607C459.804 320.235 459.809 319.843 459.737 319.468C459.665 319.092 459.517 318.744 459.307 318.456C458.022 316.786 454.52 316.811 453.297 316.937C453.096 316.961 452.894 316.915 452.714 316.803C452.534 316.69 452.384 316.518 452.282 316.305C452.169 316.103 452.109 315.865 452.109 315.621C452.109 315.378 452.169 315.14 452.282 314.938C453.546 312.863 456.427 306.839 454.789 303.954C451.266 302.663 418.894 330.604 415.288 334.578C413.215 337.108 412.158 369.833 412.158 376.236C412.158 376.236 412.158 377.248 411.889 378.766C411.64 381.019 411.143 385.473 410.915 387.625V387.726Z" fill="#231F20"/>
<path d="M318.585 315.495C318.585 315.495 338.73 330.376 353.817 364.467C368.905 398.558 391.33 482.861 391.33 482.861L404.241 375.476L448.282 387.599C448.282 387.599 452.054 579.945 413.049 601.584C374.045 623.223 274.337 489.315 274.337 489.315L318.585 315.495Z" fill="#EA2550"/>
<path d="M400.345 605.026H400.055C399.848 605.026 378.107 597.003 352.926 568.531C329.756 542.311 298.772 492.807 282.772 405.796C282.742 405.63 282.739 405.458 282.764 405.291C282.788 405.123 282.839 404.963 282.914 404.82C282.989 404.676 283.087 404.553 283.201 404.455C283.315 404.358 283.444 404.289 283.58 404.252C283.716 404.216 283.857 404.212 283.994 404.242C284.131 404.272 284.262 404.334 284.38 404.426C284.497 404.518 284.599 404.637 284.678 404.776C284.758 404.916 284.815 405.073 284.845 405.239C315.207 570.429 399.827 602.293 400.677 602.647C400.951 602.694 401.2 602.872 401.367 603.143C401.534 603.413 401.606 603.754 401.568 604.089C401.529 604.425 401.383 604.728 401.162 604.932C400.94 605.136 400.661 605.225 400.386 605.178L400.345 605.026Z" fill="#231F20"/>
<path d="M411.764 258.753C412.448 258.12 413.111 257.462 413.837 256.855L419.536 251.793C420.8 250.654 422.044 249.54 423.225 248.25C424.269 247.147 425.17 245.859 425.899 244.428C426.343 243.452 426.69 242.416 426.935 241.34C427.165 240.407 427.325 239.45 427.412 238.48C427.601 236.959 427.357 235.405 426.719 234.078C426.081 232.75 425.089 231.731 423.909 231.192C422.645 230.625 421.278 230.491 419.956 230.803C418.634 231.115 417.407 231.862 416.407 232.963C415.872 233.507 415.386 234.117 414.956 234.785V234.608C414.393 233.122 413.476 231.878 412.324 231.04C411.261 230.297 410.043 229.953 408.821 230.053C407.296 230.134 405.826 230.777 404.605 231.897C403.385 233.017 402.47 234.562 401.982 236.329C401.747 237.25 401.601 238.201 401.547 239.164C401.453 240.181 401.453 241.209 401.547 242.226C401.728 243.722 402.181 245.148 402.873 246.402C403.579 247.683 404.377 248.886 405.257 249.996C406.562 251.666 407.909 253.337 409.215 255.058C410.127 256.222 410.997 257.411 411.868 258.601L411.764 258.753Z" fill="#F9665C"/>
<path d="M322.751 255.362L311.455 247.364C311.455 247.364 308.015 263.941 314.15 268.218C320.284 272.495 322.751 255.362 322.751 255.362Z" fill="white"/>
<path d="M316.056 270.142C315.2 270.125 314.362 269.828 313.632 269.281C306.896 264.599 310.295 247.744 310.44 247.035C310.481 246.846 310.557 246.671 310.661 246.522C310.765 246.373 310.895 246.254 311.041 246.174C311.186 246.087 311.345 246.042 311.507 246.042C311.669 246.042 311.828 246.087 311.974 246.174L323.31 254.273C323.491 254.407 323.636 254.603 323.724 254.838C323.813 255.073 323.842 255.334 323.807 255.589C323.621 256.779 321.984 267.282 317.839 269.661C317.281 269.981 316.672 270.145 316.056 270.142ZM312.16 249.313C311.331 254.374 310.689 264.321 314.668 267.029C314.998 267.306 315.381 267.474 315.781 267.519C316.18 267.563 316.582 267.481 316.947 267.282C319.414 265.864 321.092 259.259 321.59 255.944L312.16 249.313Z" fill="#231F20"/>
<path d="M295.995 274.115C295.995 274.115 279.56 268.75 274.088 262.322C280.6 271.67 288.091 279.933 296.368 286.896L295.995 274.115Z" fill="#231F20"/>
<path d="M296.368 288.162C296.168 288.173 295.971 288.101 295.808 287.959C287.42 280.926 279.825 272.579 273.218 263.131C273.052 262.882 272.971 262.566 272.989 262.246C273.007 261.926 273.124 261.627 273.316 261.408C273.508 261.19 273.761 261.068 274.024 261.069C274.286 261.069 274.539 261.191 274.731 261.41C279.953 267.535 296.036 272.85 296.202 272.9C296.416 272.966 296.607 273.116 296.745 273.326C296.883 273.536 296.962 273.795 296.969 274.065L297.404 286.719C297.414 286.953 297.371 287.185 297.28 287.391C297.188 287.596 297.052 287.767 296.886 287.883C296.734 288.026 296.556 288.121 296.368 288.162ZM279.995 268.421C284.652 274.347 289.759 279.72 295.248 284.467L294.917 275.077C289.829 273.336 284.86 271.11 280.057 268.421H279.995Z" fill="#231F20"/>
</svg>
