<svg width="769" height="640" viewBox="0 0 769 640" fill="none" xmlns="http://www.w3.org/2000/svg">
<path d="M641.739 579.379C636.848 587.794 626.89 590.224 617.933 591.742C553.921 602.001 488.788 593.911 424.52 585.626C419.551 584.975 414.149 584.107 410.771 580.051L418.137 573.545C364.977 581.225 311.27 583.237 257.761 579.553C250.179 579.032 241.93 578.056 236.587 572.113C232.895 568.036 231.127 562.05 227.022 558.449C221.443 553.569 213.469 554.589 206.417 555.695C183.152 559.347 159.696 561.325 136.198 561.616C119.168 561.833 100.194 560.228 88.5861 546.433C99.6248 537.064 112.785 531.36 125.748 525.742C142.405 518.541 159.14 511.319 176.64 507.155C197.814 502.101 219.617 501.667 241.262 501.233L476.296 496.614C500.514 496.137 524.949 495.681 548.735 500.735C575.841 506.482 633.941 532.444 611.039 571.202C613.514 571.419 642.918 577.319 641.739 579.379Z" fill="url(#paint0_linear)"/>
<path d="M151.047 544.807C195.773 544.807 232.03 504.77 232.03 455.383C232.03 405.996 195.773 365.959 151.047 365.959C106.321 365.959 70.0637 405.996 70.0637 455.383C70.0637 504.77 106.321 544.807 151.047 544.807Z" fill="#F8C244"/>
<path d="M217.592 475.55C227.699 434.976 206.106 393.038 169.362 381.877C132.618 370.716 94.6379 394.56 84.5307 435.134C74.4236 475.707 96.0169 517.646 132.761 528.807C169.505 539.967 207.485 516.123 217.592 475.55Z" fill="#E8A825"/>
<path d="M140.106 502.383L141.285 490.215C135.402 489.498 129.817 486.981 125.159 482.95L128.537 475.207C132.857 479.084 138.091 481.516 143.622 482.212C151.479 483.145 157.097 478.872 157.764 472.018C158.432 465.165 154.583 460.805 146.883 456.207C136.237 450.047 129.912 443.692 130.934 433.26C131.916 423.283 139.065 416.473 149.279 415.909L150.458 403.763L157.215 404.565L156.075 416.212C161.038 416.871 165.769 418.908 169.825 422.134L166.407 429.833C162.533 426.598 157.924 424.609 153.09 424.086C144.703 423.088 141.01 428.25 140.539 433.043C139.93 439.29 143.642 442.89 152.677 448.356C163.402 454.754 168.391 461.673 167.409 472.365C166.485 481.865 159.552 490.064 148.219 490.779L147.001 503.272L140.106 502.383Z" fill="#F8C244"/>
<path d="M246.271 547.171C290.996 547.171 327.254 507.135 327.254 457.747C327.254 408.36 290.996 368.323 246.271 368.323C201.545 368.323 165.287 408.36 165.287 457.747C165.287 507.135 201.545 547.171 246.271 547.171Z" fill="#F8C244"/>
<path d="M279.407 524.607C312.827 504.387 325.075 458.078 306.762 421.174C288.45 384.27 246.512 370.746 213.092 390.967C179.671 411.188 167.424 457.497 185.736 494.401C204.048 531.304 245.986 544.828 279.407 524.607Z" fill="#E8A825"/>
<path d="M268.014 499.911L261.198 490.281C256.52 494.288 250.922 496.774 245.033 497.46L242.578 489.283C248.125 488.773 253.422 486.515 257.84 482.776C264.027 477.462 265.402 470.023 261.552 464.579C257.702 459.135 252.203 458.983 243.874 461.586C232.364 465.36 223.82 465.664 217.967 457.378C212.369 449.462 213.233 439.073 220.167 430.788L213.371 421.158L218.733 416.538L225.254 425.777C229.227 422.435 233.904 420.264 238.846 419.466L241.242 427.686C236.421 428.337 231.858 430.455 228.063 433.802C221.404 439.528 222.013 446.057 224.684 449.874C228.2 454.819 233.15 454.559 243.069 451.544C254.854 447.879 262.711 448.963 268.78 457.465C274.103 464.991 274.339 476.161 266.6 485.422L273.592 495.356L268.014 499.911Z" fill="#F8C244"/>
<path d="M494.543 85.1077V527.889C494.543 538.146 490.854 547.982 484.286 555.234C477.718 562.486 468.81 566.561 459.522 566.561H285.967C281.361 566.572 276.799 565.58 272.541 563.642C268.282 561.704 264.412 558.857 261.152 555.265C257.892 551.673 255.305 547.406 253.54 542.708C251.775 538.011 250.867 532.975 250.867 527.889V85.1077C250.864 80.0274 251.768 74.9964 253.527 70.302C255.286 65.6077 257.865 61.342 261.117 57.7487C264.37 54.1554 268.231 51.305 272.482 49.3602C276.732 47.4154 281.287 46.4144 285.888 46.4144H459.443C464.051 46.403 468.615 47.3956 472.874 49.3352C477.134 51.2749 481.004 54.1236 484.265 57.718C487.526 61.3124 490.112 65.5819 491.876 70.282C493.639 74.982 494.546 80.0201 494.543 85.1077Z" fill="url(#paint1_linear)"/>
<path d="M455.869 52.9646H289.6C270.899 52.9646 255.738 69.7055 255.738 90.3565V521.773C255.738 542.424 270.899 559.165 289.6 559.165H455.869C474.57 559.165 489.731 542.424 489.731 521.773V90.3565C489.731 69.7055 474.57 52.9646 455.869 52.9646Z" fill="#473F47"/>
<path d="M483.092 95.0413V512.794C483.004 522.264 479.514 531.308 473.388 537.938C467.263 544.567 459.004 548.239 450.428 548.147H294.648C288.958 548.167 283.36 546.552 278.405 543.462C273.436 540.433 269.29 535.992 266.396 530.601C263.502 525.209 261.966 519.061 261.945 512.794V95.0413C262.038 85.5652 265.536 76.5178 271.668 69.8883C277.801 63.2588 286.067 59.5899 294.648 59.6882H320.969V64.9369C321.035 68.3093 322.003 71.5847 323.75 74.3515C325.498 77.1183 327.947 79.2532 330.789 80.488C332.697 81.3186 334.729 81.7454 336.78 81.7459H409.141C413.268 81.7465 417.229 79.9542 420.169 76.7563C423.109 73.5583 424.792 69.2116 424.854 64.655V59.6882H450.389C458.767 59.6678 466.837 63.1734 472.957 69.4916C476.146 72.7527 478.691 76.7045 480.435 81.1005C482.179 85.4965 483.083 90.2421 483.092 95.0413Z" fill="white"/>
<path opacity="0.18" d="M372.784 227.366C401.91 227.366 425.522 201.293 425.522 169.131C425.522 136.969 401.91 110.896 372.784 110.896C343.657 110.896 320.045 136.969 320.045 169.131C320.045 201.293 343.657 227.366 372.784 227.366Z" fill="url(#paint2_linear)"/>
<path opacity="0.18" d="M455.613 270.311H288.029V420.984H455.613V270.311Z" fill="url(#paint3_linear)"/>
<g opacity="0.41">
<path opacity="0.41" d="M331.732 387.041H304.116V413.61H331.732V387.041Z" fill="url(#paint4_linear)"/>
</g>
<path d="M359.133 366.371H331.516V413.61H359.133V366.371Z" fill="url(#paint5_linear)"/>
<g opacity="0.5">
<path opacity="0.5" d="M386.319 344.615H358.703V413.652H386.319V344.615Z" fill="url(#paint6_linear)"/>
</g>
<path d="M413.933 323.34H386.317V413.61H413.933V323.34Z" fill="url(#paint7_linear)"/>
<path d="M441.334 301.933H413.717V413.61H441.334V301.933Z" fill="url(#paint8_linear)"/>
<path d="M441.334 301.933H413.717V413.61H441.334V301.933Z" fill="url(#paint9_linear)"/>
<path d="M446.794 413.61H293.568V421.006H446.794V413.61Z" fill="url(#paint10_linear)"/>
<path opacity="0.18" d="M368.796 434.865H288.029V547.691H368.796V434.865Z" fill="url(#paint11_linear)"/>
<path opacity="0.18" d="M455.613 434.865H374.846V547.691H455.613V434.865Z" fill="url(#paint12_linear)"/>
<path d="M369.68 212.184V201.578C364.549 201.601 359.514 200.038 355.145 197.067L357.365 190.018C361.432 192.873 366.157 194.379 370.977 194.355C377.773 194.355 382.271 190.018 382.251 184.031C382.231 178.045 378.519 174.727 371.468 171.604C361.765 167.461 355.754 162.668 355.754 153.558C355.754 144.883 361.274 138.224 370.014 136.597V126.035H375.907V136.185C380.235 136.21 384.486 137.449 388.261 139.786L385.963 146.835C382.345 144.47 378.206 143.254 374.001 143.321C366.695 143.321 363.964 148.223 363.984 152.387C363.984 157.831 367.539 160.542 375.769 164.273C385.59 168.611 390.52 174.033 390.579 183.359C390.579 191.623 385.413 199.431 375.671 201.274V212.119L369.68 212.184Z" fill="url(#paint13_linear)"/>
<path d="M471.268 371.121C470.62 372.162 469.834 373.702 468.813 374.179C467.32 374.873 465.238 373.615 464 372.791C461.917 371.404 459.946 369.822 458.108 368.063C456.399 366.458 454.808 364.701 452.962 363.291C451.164 361.786 448.99 360.93 446.735 360.841C441.982 360.841 439.468 366.046 439.016 370.666C438.564 375.285 440.862 380.404 444.908 381.293C447.089 381.77 449.348 380.946 451.567 381.163C459.051 381.857 463.706 393.591 471.091 392.008C473.668 391.158 475.958 389.482 477.671 387.193L485.272 378.799C489.731 373.876 494.445 368.41 495.211 361.448C495.781 356.177 492.402 344.465 486.549 347.892C483.76 349.519 480.912 356.373 479.026 359.214C476.532 363.053 474.057 366.913 471.504 370.687C471.405 370.883 471.327 370.991 471.268 371.121Z" fill="#F9C6D6"/>
<path d="M424.265 362.142L459.483 372.466L471.798 422.199L437.621 416.039L424.265 362.142Z" fill="url(#paint14_linear)"/>
<path d="M460.131 419.943L459.031 414.673C459.052 414.157 458.98 413.643 458.819 413.159C458.658 412.674 458.411 412.231 458.093 411.853C457.774 411.475 457.391 411.172 456.966 410.959C456.54 410.747 456.08 410.631 455.613 410.617C453.126 410.485 450.753 409.43 448.876 407.624C447.649 405.903 447.009 403.761 447.069 401.572C447.069 398.297 447.953 394.632 450.565 393.07L467.929 406.496L471.857 422.22L460.131 419.943Z" fill="url(#paint15_linear)"/>
<path d="M473.9 359.149C473.702 359.806 473.603 360.495 473.605 361.187C473.734 362.16 474.101 363.074 474.666 363.834C477.027 367.656 478.922 371.806 480.303 376.175C480.664 377.562 481.192 378.89 481.874 380.122C482.218 380.743 482.692 381.264 483.256 381.642C483.82 382.019 484.457 382.242 485.115 382.291C485.916 382.217 486.676 381.873 487.294 381.307C487.912 380.741 488.358 379.979 488.572 379.124C488.999 377.424 489.112 375.647 488.906 373.897C488.572 368.8 487.669 363.053 488.553 357.956C489.515 352.273 491.244 346.656 492.363 340.995C490.753 340.214 489.024 341.624 487.747 342.947C483.623 347.176 479.498 351.406 475.687 355.96C474.888 356.867 474.278 357.955 473.9 359.149Z" fill="url(#paint16_linear)"/>
<path d="M515.541 577.883C468.498 577.123 430.59 559.382 430.865 538.17C430.865 535.806 429.274 522.489 430.197 520.363C437.621 502.578 474.705 500.496 516.621 501.125C557.751 501.797 592.301 501.125 600 518.693C601.14 521.187 601.316 538.213 601.277 540.838C600.963 562.05 562.583 578.62 515.541 577.883Z" fill="#E8A825"/>
<path d="M600.603 523.166C600.878 501.978 562.974 484.2 515.942 483.456C468.911 482.713 430.561 499.287 430.287 520.475C430.012 541.662 467.916 559.441 514.948 560.185C561.979 560.928 600.329 544.354 600.603 523.166Z" fill="#F8C244"/>
<path d="M587.994 522.967C588.228 504.917 555.937 489.772 515.869 489.138C475.801 488.505 443.129 502.624 442.895 520.674C442.661 538.723 474.953 553.869 515.021 554.502C555.089 555.136 587.76 541.017 587.994 522.967Z" fill="#E8A825"/>
<path d="M469.677 517.977L481.285 518.173C481.512 516.502 482.103 514.917 483.006 513.553C483.909 512.19 485.098 511.088 486.471 510.343L494.17 511.666C492.84 512.346 491.682 513.379 490.801 514.674C489.92 515.968 489.344 517.483 489.122 519.084C489.122 522.771 493.777 525.352 500.318 525.417C502.843 525.637 505.382 525.247 507.756 524.273C510.131 523.299 512.285 521.765 514.067 519.778C516.627 516.83 519.757 514.56 523.223 513.137C526.688 511.713 530.401 511.173 534.083 511.558C543.628 511.558 550.876 514.876 552.546 519.669L564.154 519.864V523.074L552.978 522.879C552.797 524.269 552.331 525.595 551.616 526.756C550.902 527.917 549.957 528.883 548.853 529.581L541.291 528.171C542.361 527.502 543.275 526.565 543.957 525.434C544.639 524.304 545.072 523.013 545.219 521.665C545.219 517.739 540.014 516.091 535.399 516.025C532.911 515.876 530.425 516.359 528.133 517.438C525.841 518.517 523.804 520.164 522.18 522.25C517.289 527.499 511.259 530.102 500.888 530.102C491.754 530.102 483.21 526.957 481.403 521.578L469.441 521.383L469.677 517.977Z" fill="#F8C244"/>
<path d="M555.158 559.816C508.116 559.078 470.207 541.315 470.482 520.103C470.482 517.761 468.891 504.422 469.814 502.318C477.239 484.511 514.342 482.429 556.238 483.058C597.388 483.73 631.918 483.058 639.638 500.626C640.757 503.142 640.934 520.146 640.914 522.771C640.58 543.983 602.2 560.553 555.158 559.816Z" fill="#E8A825"/>
<path d="M640.22 505.105C640.494 483.918 602.59 466.139 555.559 465.396C508.527 464.652 470.178 481.226 469.903 502.414C469.629 523.601 507.533 541.38 554.564 542.123C601.596 542.867 639.945 526.293 640.22 505.105Z" fill="#F8C244"/>
<path d="M627.611 504.906C627.845 486.856 595.553 471.711 555.485 471.078C515.417 470.444 482.746 484.563 482.512 502.613C482.278 520.663 514.57 535.808 554.638 536.442C594.706 537.075 627.377 522.956 627.611 504.906Z" fill="#E8A825"/>
<path d="M509.294 499.91L520.903 500.106C521.13 498.435 521.72 496.85 522.623 495.486C523.526 494.123 524.715 493.021 526.088 492.276L533.788 493.599C532.46 494.28 531.305 495.314 530.428 496.609C529.55 497.903 528.977 499.418 528.759 501.017C528.759 504.704 533.395 507.285 539.936 507.371C542.46 507.586 544.997 507.193 547.371 506.219C549.745 505.245 551.899 503.715 553.685 501.732C556.241 498.779 559.369 496.503 562.836 495.075C566.302 493.648 570.017 493.106 573.7 493.49C583.265 493.49 590.494 496.831 592.163 501.602L603.772 501.797V505.007L592.595 504.812C592.418 506.203 591.954 507.531 591.239 508.693C590.524 509.855 589.577 510.82 588.471 511.514L580.908 510.104C581.979 509.435 582.892 508.497 583.574 507.367C584.257 506.237 584.689 504.946 584.837 503.598C584.837 499.694 579.612 498.045 575.016 497.958C572.531 497.807 570.047 498.29 567.758 499.369C565.469 500.449 563.436 502.096 561.817 504.183C556.906 509.454 550.876 512.035 540.505 512.035C531.391 512.035 522.828 508.89 521.021 503.532L509.059 503.337L509.294 499.91Z" fill="#F8C244"/>
<path d="M524.183 512.425C477.141 511.731 439.232 493.924 439.428 472.691C439.428 470.348 437.837 457.01 438.76 454.906C446.185 437.099 483.269 435.017 525.185 435.646C566.315 436.318 600.864 435.646 608.564 453.214C609.703 455.73 609.88 472.734 609.841 475.359C609.605 496.549 571.225 513.184 524.183 512.425Z" fill="#E8A825"/>
<path d="M609.238 457.706C609.512 436.518 571.608 418.739 524.577 417.996C477.545 417.253 439.196 433.826 438.921 455.014C438.647 476.202 476.551 493.981 523.582 494.724C570.614 495.467 608.963 478.894 609.238 457.706Z" fill="#F8C244"/>
<path d="M596.629 457.507C596.863 439.457 564.571 424.311 524.503 423.678C484.435 423.045 451.764 437.164 451.53 455.213C451.296 473.263 483.588 488.409 523.656 489.042C563.724 489.675 596.395 475.556 596.629 457.507Z" fill="#E8A825"/>
<path d="M478.319 452.542L489.927 452.737C490.152 451.062 490.741 449.473 491.644 448.105C492.547 446.738 493.737 445.633 495.113 444.885L502.812 446.23C501.484 446.908 500.328 447.938 499.448 449.229C498.567 450.519 497.989 452.03 497.765 453.626C497.765 457.313 502.42 459.894 508.96 459.981C511.485 460.195 514.022 459.802 516.396 458.829C518.77 457.855 520.924 456.324 522.71 454.342C525.268 451.392 528.397 449.119 531.863 447.691C535.329 446.264 539.042 445.72 542.725 446.1C552.271 446.1 559.518 449.44 561.188 454.212L572.796 454.407V457.639L561.62 457.443C561.439 458.833 560.973 460.159 560.259 461.32C559.544 462.482 558.599 463.448 557.495 464.145L549.933 462.736C551.004 462.066 551.917 461.129 552.599 459.999C553.281 458.869 553.714 457.577 553.862 456.229C553.862 452.303 548.657 450.655 544.041 450.568C541.551 450.417 539.063 450.903 536.77 451.986C534.478 453.069 532.442 454.722 530.822 456.814C525.931 462.063 519.901 464.644 509.53 464.644C500.397 464.644 491.852 461.521 490.045 456.142L478.083 455.947L478.319 452.542Z" fill="#F8C244"/>
<path d="M459.365 523.335C460.111 525.981 460.779 529.126 459.365 531.381C458.681 532.363 457.762 533.114 456.713 533.55C455.507 534.198 454.16 534.458 452.826 534.301C451.493 534.144 450.226 533.576 449.171 532.661C448.058 531.297 447.269 529.65 446.873 527.868C444.99 521.339 443.629 514.64 442.807 507.849C442.659 507.23 442.659 506.58 442.807 505.962C443.12 505.305 443.625 504.785 444.241 504.487C447.482 502.557 452.51 501.017 454.317 505.29C456.674 510.733 457.754 517.5 459.365 523.335Z" fill="#F9C6D6"/>
<path d="M449.642 526.415C448.98 526.321 448.306 526.403 447.678 526.653C447.238 526.93 446.852 527.299 446.539 527.738L439.428 536.543C438.093 538.235 436.659 540.578 437.602 542.573C437.934 543.136 438.376 543.61 438.897 543.959C439.417 544.308 440.001 544.524 440.607 544.59C444.001 544.928 447.412 544.174 450.428 542.421C452.588 541.38 454.69 540.252 456.772 538.994C458.329 538.218 459.681 537.016 460.7 535.502C462.291 532.791 462.783 526.263 459.934 524.224C458.501 523.205 457.244 523.942 455.888 524.636C453.969 525.784 451.824 526.394 449.642 526.415Z" fill="url(#paint17_linear)"/>
<path d="M420.67 553.244C420.607 553.741 420.654 554.247 420.808 554.719C421.042 555.202 421.396 555.601 421.829 555.868C423.152 556.895 424.712 557.482 426.327 557.56C427.135 557.585 427.938 557.403 428.671 557.026C429.404 556.65 430.047 556.09 430.55 555.391C431.284 554.076 431.734 552.591 431.866 551.053C432.456 547.702 432.745 544.295 432.731 540.881C432.764 540.397 432.63 539.917 432.357 539.536C432.121 539.345 431.843 539.226 431.552 539.189C429.018 538.604 424.029 537.02 422.752 540.577C421.451 544.65 420.748 548.926 420.67 553.244Z" fill="#F9C6D6"/>
<path d="M409.966 552.94C407.81 553.064 405.68 553.524 403.641 554.307C402.618 554.705 401.679 555.33 400.882 556.143C400.085 556.956 399.446 557.94 399.005 559.035C398.598 560.124 398.549 561.337 398.868 562.462C399.572 564.099 400.795 565.395 402.305 566.105C409.484 570.393 417.613 572.355 425.758 571.766C427.852 571.846 429.892 571.013 431.434 569.445C432.572 567.568 433.105 565.322 432.947 563.069L433.222 552.398C431.414 552.094 429.725 553.396 427.997 554.068C425.011 555.196 423.833 552.463 421.358 551.899C418.215 550.945 413.324 552.55 409.966 552.94Z" fill="url(#paint18_linear)"/>
<path d="M449.642 526.415C448.98 526.321 448.306 526.403 447.678 526.653C447.238 526.93 446.852 527.299 446.539 527.738L439.428 536.543C438.093 538.235 436.659 540.578 437.602 542.573C437.934 543.136 438.376 543.61 438.897 543.959C439.417 544.308 440.001 544.524 440.607 544.59C444.001 544.928 447.412 544.174 450.428 542.421C452.588 541.38 454.69 540.252 456.772 538.994C458.329 538.218 459.681 537.016 460.7 535.502C462.291 532.791 462.783 526.263 459.934 524.224C458.501 523.205 457.244 523.942 455.888 524.636C453.969 525.784 451.824 526.394 449.642 526.415Z" fill="url(#paint19_linear)"/>
<path d="M409.966 552.94C407.81 553.064 405.68 553.524 403.641 554.307C402.618 554.705 401.679 555.33 400.882 556.143C400.085 556.956 399.446 557.94 399.005 559.035C398.598 560.124 398.549 561.337 398.868 562.462C399.572 564.099 400.795 565.395 402.305 566.105C409.484 570.393 417.613 572.355 425.758 571.766C427.852 571.846 429.892 571.013 431.434 569.445C432.572 567.568 433.105 565.322 432.947 563.069L433.222 552.398C431.414 552.094 429.725 553.396 427.997 554.068C425.011 555.196 423.833 552.463 421.358 551.899C418.215 550.945 413.324 552.55 409.966 552.94Z" fill="url(#paint20_linear)"/>
<path d="M435.814 435.256C433.753 435.71 431.848 436.792 430.315 438.379C428.759 440.862 428.062 443.879 428.35 446.881C428.395 468.393 432.017 489.712 439.036 509.779C439.203 510.517 439.501 511.212 439.912 511.822C440.323 512.432 440.84 512.947 441.432 513.336C442.504 513.687 443.651 513.634 444.692 513.184C448.906 511.883 453.056 510.341 457.126 508.565L451.606 467.659C451.349 466.516 451.41 465.314 451.783 464.21C452.192 463.441 452.766 462.793 453.453 462.324C459.718 457.181 466.353 452.612 473.291 448.659C481.933 443.714 487.453 437.967 489.004 426.97C489.535 423.882 488.98 420.687 487.453 418.035C486.672 416.734 485.558 415.719 484.254 415.12C482.949 414.522 481.512 414.366 480.126 414.673C479.098 415.027 478.12 415.538 477.219 416.191C470.541 420.637 442.748 432.978 435.814 435.256Z" fill="#282328"/>
<path d="M439.762 463.798C437.152 467.501 435.091 471.637 433.654 476.053C425.694 497.621 420.53 520.322 418.313 543.484C424.835 544.38 431.433 544.38 437.955 543.484C438.466 527.105 440.721 510.849 444.673 495.052C445.372 491.666 446.566 488.428 448.208 485.466C451.115 480.781 455.869 478.048 460.425 475.51C470.9 469.763 481.869 465.186 493.168 461.846C497.941 460.372 502.754 459.027 507.448 457.248C511.473 455.905 515.241 453.758 518.565 450.915C524.458 445.471 528.975 433.564 521.099 427.795C517.583 425.192 513.144 424.693 508.921 424.238L495.82 422.871C494.513 422.636 493.177 422.695 491.892 423.045C490.794 423.506 489.777 424.174 488.886 425.018C479.066 433.325 469.245 440.721 458.913 448.247C452.569 452.889 444.83 457.205 439.762 463.798Z" fill="#473F47"/>
<path d="M495.506 434.453C492.083 432.97 488.756 431.231 485.547 429.248C473.389 421.722 483.347 418.034 487.512 408.968C490.399 402.462 489.22 394.849 487.728 387.865C485.076 375.611 481.54 362.944 484.094 350.668C484.421 348.678 485.123 346.786 486.156 345.116C486.908 344.098 487.765 343.181 488.71 342.383C491.27 339.91 494.219 337.977 497.411 336.679C503.559 334.51 510.375 336.071 516.13 339.325C539.7 352.533 539.504 394.74 537.284 419.574C536.773 425.3 535.988 431.308 532.825 435.885C528.19 442.608 523.869 440.222 517.976 439.051C510.139 437.576 503.068 437.706 495.506 434.453Z" fill="url(#paint21_linear)"/>
<path d="M536.086 389.904C536.086 394.241 535.32 398.341 535.143 402.592C534.927 407.298 535.379 412.048 535.025 416.733C534.438 424.44 531.747 431.769 527.306 437.75C526.914 438.357 526.386 438.843 525.774 439.159C524.91 439.407 523.996 439.323 523.181 438.921L511.848 435.082C510.361 434.64 508.919 434.029 507.546 433.26C505.163 431.767 503.359 429.358 502.479 426.493C502.218 425.763 502.13 424.972 502.223 424.194C502.538 422.502 504.187 421.526 505.405 420.594C510.296 417.08 513.36 411.246 516.248 405.65C519.009 400.604 521.431 395.341 523.495 389.904C524.25 387.303 525.299 384.818 526.618 382.508C527.954 380.447 531.313 377.454 533.65 379.168C535.988 380.881 536.105 387.236 536.086 389.904Z" fill="url(#paint22_linear)"/>
<path d="M509.177 354.247C508.189 355.616 506.954 356.743 505.551 357.557C504.148 358.371 502.606 358.854 501.025 358.975C500.523 359.045 500.014 358.915 499.591 358.607C499.144 358.102 498.89 357.426 498.884 356.72C498.747 355.31 498.55 353.488 498.413 351.688C498.275 349.888 498.02 347.675 497.843 346.135C497.462 342.039 496.054 338.14 493.777 334.879C493.311 334.174 492.778 333.527 492.186 332.948C488.258 329.044 504.227 330.584 506.328 325.27C508.764 328.719 508.548 333.599 509.609 337.872C510.308 339.945 510.905 342.06 511.396 344.205C511.683 345.957 511.633 347.756 511.251 349.486C510.868 351.216 510.162 352.838 509.177 354.247Z" fill="#F9C6D6"/>
<path d="M498.629 352.512L498.413 351.688C498.197 349.671 498.02 347.675 497.843 346.135C497.462 342.039 496.054 338.14 493.777 334.879V334.445C493.777 334.445 506.427 325.27 507.782 336.006C509.137 346.743 498.629 352.512 498.629 352.512Z" fill="url(#paint23_linear)"/>
<path d="M485.351 328.502C485.089 330.742 485.466 333.017 486.431 335.009C486.931 335.849 487.563 336.583 488.297 337.178C493.326 341.364 500.888 340.518 505.975 336.18C508.402 333.877 510.357 331.031 511.711 327.83C513.066 324.629 513.789 321.147 513.832 317.614C514.194 313.934 513.25 310.241 511.2 307.312C509.963 305.985 508.445 305.022 506.784 304.511C505.123 303.999 503.373 303.956 501.693 304.384C497.094 305.564 492.904 308.194 489.633 311.953C486.392 315.879 485.587 323.449 485.351 328.502Z" fill="#F9C6D6"/>
<path d="M530.9 365.156C530.999 365.937 531.077 366.718 531.156 367.499C532.295 379.103 531.274 390.511 530.881 402.071C530.625 410.031 530.095 420.485 523.947 425.929C507.507 440.482 470.914 410.053 469.304 408.73C466.848 406.713 463.411 406.561 460.465 406.192C457.023 405.951 453.8 404.248 451.469 401.442C450.341 400.021 449.606 398.272 449.352 396.404C449.098 394.535 449.335 392.626 450.035 390.901C452.451 385.653 459.247 384.85 464.138 387.193C469.029 389.535 472.702 394.09 476.944 397.647C480.29 400.294 483.816 402.65 487.492 404.696C491.774 407.211 506.859 410.834 511.71 410.899C516.876 410.899 514.853 377.411 515.364 366.718C515.383 363.953 515.995 361.233 517.151 358.78C517.729 357.582 518.573 356.566 519.604 355.826C520.634 355.087 521.818 354.648 523.044 354.551C524.342 354.659 525.592 355.144 526.668 355.954C527.743 356.765 528.607 357.874 529.172 359.17C530.062 361.038 530.648 363.064 530.9 365.156Z" fill="#F9C6D6"/>
<path d="M504.384 322.668C504.384 323.015 504.286 323.362 504.247 323.709L503.716 329.977L502.597 342.752L522.062 345.767C522.906 338.935 524.694 332.254 525.46 325.401C526.226 318.547 525.911 311.238 522.808 305.251C520.294 300.371 514.283 297.443 509.805 295.188C508.68 294.628 507.509 294.185 506.309 293.865C501.689 292.507 496.801 292.772 492.324 294.624C491.252 295.024 490.254 295.634 489.378 296.424C488.811 297.212 488.299 298.046 487.846 298.918C486.108 301.408 484.632 304.108 483.446 306.965C482.82 308.316 482.44 309.79 482.326 311.303C482.277 311.465 482.277 311.64 482.326 311.802C482.423 311.944 482.552 312.056 482.7 312.127L487.924 315.228C488.037 315.304 488.165 315.349 488.297 315.359C488.497 315.333 488.679 315.224 488.808 315.055L492.462 311.541L491.46 313.992C491.408 314.11 491.381 314.24 491.381 314.372C491.381 314.503 491.408 314.633 491.46 314.751C491.548 314.875 491.663 314.972 491.794 315.033L497.018 317.874C497.121 317.904 497.23 317.904 497.333 317.874C497.509 317.874 497.627 317.723 497.745 317.593L500.279 314.643L499.533 318.287C499.483 318.463 499.483 318.652 499.533 318.829C499.618 318.983 499.75 319.098 499.906 319.154L502.695 320.737C502.793 320.737 502.891 320.846 502.97 320.737C503.055 320.713 503.13 320.66 503.186 320.586L505.052 318.265C504.927 319.749 504.704 321.22 504.384 322.668Z" fill="#473F47"/>
<path d="M533.925 364.549C536.262 371.056 534.141 377.216 534.023 383.614C534.028 384.257 533.962 384.898 533.827 385.523C533.58 386.4 533.142 387.197 532.55 387.843C531.388 389.039 530.016 389.959 528.52 390.548C527.024 391.137 525.434 391.383 523.849 391.27C520.681 391.004 517.564 390.229 514.598 388.971C513.625 388.757 512.762 388.145 512.182 387.258C511.929 386.639 511.821 385.961 511.867 385.284C511.71 375.502 509.432 359.713 518.055 353.206C524.89 348.022 531.745 358.173 533.925 364.549Z" fill="url(#paint24_linear)"/>
<path d="M487.885 363.942C485.062 365.63 482.492 367.788 480.264 370.34C479.815 370.785 479.483 371.354 479.301 371.989C479.213 372.483 479.213 372.991 479.301 373.485C479.746 375.914 480.507 378.259 481.56 380.447C481.782 380.95 482.073 381.411 482.424 381.814C485.744 385.154 486.51 379.081 486.745 377.107C487.309 372.726 487.688 368.338 487.885 363.942Z" fill="url(#paint25_linear)"/>
<path d="M486.981 324.229C489.118 324.229 490.851 322.316 490.851 319.957C490.851 317.597 489.118 315.684 486.981 315.684C484.844 315.684 483.112 317.597 483.112 319.957C483.112 322.316 484.844 324.229 486.981 324.229Z" stroke="#473F47" stroke-width="0.331842" stroke-miterlimit="10"/>
<path d="M494.583 327.917C496.72 327.917 498.452 326.004 498.452 323.644C498.452 321.284 496.72 319.371 494.583 319.371C492.446 319.371 490.713 321.284 490.713 323.644C490.713 326.004 492.446 327.917 494.583 327.917Z" stroke="#473F47" stroke-width="0.331842" stroke-miterlimit="10"/>
<path d="M445.733 363.942L451.783 350.083C451.783 350.083 454.258 350.213 454.729 351.775L448.051 365.395C448.051 365.395 447.658 366.415 445.733 363.942Z" fill="#473F47"/>
<defs>
<linearGradient id="paint0_linear" x1="376.339" y1="348.955" x2="344.03" y2="856.24" gradientUnits="userSpaceOnUse">
<stop offset="0.01"/>
<stop offset="0.13" stop-opacity="0.69"/>
<stop offset="0.25" stop-opacity="0.32"/>
<stop offset="1" stop-opacity="0"/>
</linearGradient>
<linearGradient id="paint1_linear" x1="372.705" y1="46.4143" x2="372.705" y2="566.561" gradientUnits="userSpaceOnUse">
<stop stop-color="#EA2550"/>
<stop offset="1" stop-color="#F9665C"/>
</linearGradient>
<linearGradient id="paint2_linear" x1="372.784" y1="110.896" x2="372.784" y2="227.366" gradientUnits="userSpaceOnUse">
<stop stop-color="#EA2550"/>
<stop offset="1" stop-color="#F9665C"/>
</linearGradient>
<linearGradient id="paint3_linear" x1="371.821" y1="270.311" x2="371.821" y2="420.984" gradientUnits="userSpaceOnUse">
<stop stop-color="#EA2550"/>
<stop offset="1" stop-color="#F9665C"/>
</linearGradient>
<linearGradient id="paint4_linear" x1="317.924" y1="387.041" x2="317.924" y2="413.61" gradientUnits="userSpaceOnUse">
<stop stop-color="#EA2550"/>
<stop offset="1" stop-color="#F9665C"/>
</linearGradient>
<linearGradient id="paint5_linear" x1="345.324" y1="366.371" x2="345.324" y2="413.61" gradientUnits="userSpaceOnUse">
<stop stop-color="#EA2550"/>
<stop offset="1" stop-color="#F9665C"/>
</linearGradient>
<linearGradient id="paint6_linear" x1="372.511" y1="344.615" x2="372.511" y2="413.652" gradientUnits="userSpaceOnUse">
<stop stop-color="#EA2550"/>
<stop offset="1" stop-color="#F9665C"/>
</linearGradient>
<linearGradient id="paint7_linear" x1="400.125" y1="323.34" x2="400.125" y2="413.61" gradientUnits="userSpaceOnUse">
<stop stop-color="#EA2550"/>
<stop offset="1" stop-color="#F9665C"/>
</linearGradient>
<linearGradient id="paint8_linear" x1="427.525" y1="301.933" x2="427.525" y2="413.61" gradientUnits="userSpaceOnUse">
<stop stop-color="#EA2550"/>
<stop offset="1" stop-color="#F9665C"/>
</linearGradient>
<linearGradient id="paint9_linear" x1="358.17" y1="303.495" x2="622.163" y2="472.94" gradientUnits="userSpaceOnUse">
<stop offset="0.01"/>
<stop offset="0.08" stop-opacity="0.69"/>
<stop offset="0.21" stop-opacity="0.32"/>
<stop offset="1" stop-opacity="0"/>
</linearGradient>
<linearGradient id="paint10_linear" x1="26639.2" y1="1677.28" x2="26637.7" y2="2279.61" gradientUnits="userSpaceOnUse">
<stop offset="0.01"/>
<stop offset="0.08" stop-opacity="0.69"/>
<stop offset="0.21" stop-opacity="0.32"/>
<stop offset="1" stop-opacity="0"/>
</linearGradient>
<linearGradient id="paint11_linear" x1="328.413" y1="434.865" x2="328.413" y2="547.691" gradientUnits="userSpaceOnUse">
<stop stop-color="#EA2550"/>
<stop offset="1" stop-color="#F9665C"/>
</linearGradient>
<linearGradient id="paint12_linear" x1="415.23" y1="434.865" x2="415.23" y2="547.691" gradientUnits="userSpaceOnUse">
<stop stop-color="#EA2550"/>
<stop offset="1" stop-color="#F9665C"/>
</linearGradient>
<linearGradient id="paint13_linear" x1="372.862" y1="126.035" x2="372.862" y2="212.184" gradientUnits="userSpaceOnUse">
<stop stop-color="#EA2550"/>
<stop offset="1" stop-color="#F9665C"/>
</linearGradient>
<linearGradient id="paint14_linear" x1="448.032" y1="362.142" x2="448.032" y2="422.199" gradientUnits="userSpaceOnUse">
<stop stop-color="#EA2550"/>
<stop offset="1" stop-color="#F9665C"/>
</linearGradient>
<linearGradient id="paint15_linear" x1="6483.39" y1="6637.91" x2="5821.57" y2="7219.72" gradientUnits="userSpaceOnUse">
<stop offset="0.01"/>
<stop offset="0.13" stop-opacity="0.69"/>
<stop offset="0.25" stop-opacity="0.32"/>
<stop offset="1" stop-opacity="0"/>
</linearGradient>
<linearGradient id="paint16_linear" x1="482.984" y1="340.771" x2="482.984" y2="382.291" gradientUnits="userSpaceOnUse">
<stop stop-color="#EA2550"/>
<stop offset="1" stop-color="#F9665C"/>
</linearGradient>
<linearGradient id="paint17_linear" x1="449.641" y1="523.722" x2="449.641" y2="544.669" gradientUnits="userSpaceOnUse">
<stop stop-color="#EA2550"/>
<stop offset="1" stop-color="#F9665C"/>
</linearGradient>
<linearGradient id="paint18_linear" x1="415.941" y1="551.601" x2="415.941" y2="571.868" gradientUnits="userSpaceOnUse">
<stop stop-color="#EA2550"/>
<stop offset="1" stop-color="#F9665C"/>
</linearGradient>
<linearGradient id="paint19_linear" x1="5959.96" y1="6360.09" x2="6414.35" y2="6625.67" gradientUnits="userSpaceOnUse">
<stop offset="0.01"/>
<stop offset="0.13" stop-opacity="0.69"/>
<stop offset="0.25" stop-opacity="0.32"/>
<stop offset="1" stop-opacity="0"/>
</linearGradient>
<linearGradient id="paint20_linear" x1="7571.63" y1="6727.21" x2="7726.23" y2="6134.02" gradientUnits="userSpaceOnUse">
<stop offset="0.01"/>
<stop offset="0.13" stop-opacity="0.69"/>
<stop offset="0.25" stop-opacity="0.32"/>
<stop offset="1" stop-opacity="0"/>
</linearGradient>
<linearGradient id="paint21_linear" x1="508.972" y1="335.676" x2="508.972" y2="440.436" gradientUnits="userSpaceOnUse">
<stop stop-color="#EA2550"/>
<stop offset="1" stop-color="#F9665C"/>
</linearGradient>
<linearGradient id="paint22_linear" x1="9030.46" y1="13234.4" x2="10865.6" y2="14008.6" gradientUnits="userSpaceOnUse">
<stop offset="0.01"/>
<stop offset="0.13" stop-opacity="0.69"/>
<stop offset="0.25" stop-opacity="0.32"/>
<stop offset="1" stop-opacity="0"/>
</linearGradient>
<linearGradient id="paint23_linear" x1="4041.74" y1="4285.06" x2="4380.7" y2="4766.54" gradientUnits="userSpaceOnUse">
<stop offset="0.01"/>
<stop offset="0.13" stop-opacity="0.69"/>
<stop offset="0.25" stop-opacity="0.32"/>
<stop offset="1" stop-opacity="0"/>
</linearGradient>
<linearGradient id="paint24_linear" x1="523.249" y1="351.781" x2="523.249" y2="391.297" gradientUnits="userSpaceOnUse">
<stop stop-color="#EA2550"/>
<stop offset="1" stop-color="#F9665C"/>
</linearGradient>
<linearGradient id="paint25_linear" x1="2686.2" y1="4247.5" x2="2499.18" y2="4261.98" gradientUnits="userSpaceOnUse">
<stop offset="0.01"/>
<stop offset="0.13" stop-opacity="0.69"/>
<stop offset="0.25" stop-opacity="0.32"/>
<stop offset="1" stop-opacity="0"/>
</linearGradient>
</defs>
</svg>
