<svg width="30" height="30" viewBox="0 0 30 30" fill="none" xmlns="http://www.w3.org/2000/svg">
<g clip-path="url(#clip0)">
<path d="M22.0781 14.1046V30.0001H20.2266L15.014 24.4979L15.0005 24.512V14.1046H22.0781Z" fill="#2FC0F0"/>
<path d="M15.0004 14.1046V24.512L9.81733 30.0001H7.94873V14.1046H15.0004Z" fill="#9EE2F8"/>
<path d="M23.1134 11.5372L23.7522 15.1596L20.2958 16.4177L18.4566 19.6032L15.0132 18.3498V0.0106201L17.8178 2.36432H21.4962L22.1349 5.98672L24.9526 8.35161L23.1134 11.5372Z" fill="#FF9F22"/>
<path d="M15.0132 0.010597V18.3498L15.0003 18.3451L11.5433 19.6032L9.70414 16.4176L6.24776 15.1595L6.88652 11.5371L5.04736 8.35158L7.86498 5.98669L8.50374 2.3643H12.1821L15.0003 0L15.0132 0.010597Z" fill="#FFDA44"/>
<path d="M18.768 8.7767L15.0132 11.5925V9.38543L17.7083 7.36377L18.768 8.7767Z" fill="#FFDD55"/>
<path d="M15.0133 9.3854V11.5925L13.3961 12.8053L11.0918 10.1166L12.4323 8.96741L13.6604 10.3998L15.0133 9.3854Z" fill="#FFF68E"/>
</g>
<defs>
<clipPath id="clip0">
<rect width="30" height="30" fill="white"/>
</clipPath>
</defs>
</svg>
