<svg width="32768" height="6208" viewBox="0 0 32768 6208" fill="none" xmlns="http://www.w3.org/2000/svg">
<path fill-rule="evenodd" clip-rule="evenodd" d="M0 2066.53L1355.37 1591.36C2710.73 1184.06 5501.2 369.467 8211.93 97.9357C10922.7 -173.595 13633.4 97.9356 16423.9 1184.06C19134.6 2338.07 21845.3 4238.78 24556.1 4510.31C27346.5 4849.73 30057.3 3424.19 31412.6 2745.36L32768 2066.53V6207.38H31412.6C30057.3 6207.38 27346.5 6207.38 24556.1 6207.38C21845.3 6207.38 19134.6 6207.38 16423.9 6207.38C13633.4 6207.38 10922.7 6207.38 8211.93 6207.38C5501.2 6207.38 2710.73 6207.38 1355.37 6207.38H0V2066.53Z" fill="#141416"/>
</svg>
